<svg width="194" height="252" viewBox="0 0 194 252" fill="none" xmlns="http://www.w3.org/2000/svg">
<rect width="193.938" height="251.262" rx="11.4832" fill="#F2F2F2" fill-opacity="0.2"/>
<path d="M25.0939 32.176V33.808H27.0139V34.552H25.0939V36.256H27.2539V37H24.1819V31.432H27.2539V32.176H25.0939ZM29.7731 37.072C29.4264 37.072 29.1144 37.0107 28.8371 36.888C28.5651 36.76 28.3491 36.5893 28.1891 36.376C28.0291 36.1573 27.9438 35.9147 27.9331 35.648H28.8771C28.8931 35.8347 28.9811 35.992 29.1411 36.12C29.3064 36.2427 29.5118 36.304 29.7571 36.304C30.0131 36.304 30.2104 36.256 30.3491 36.16C30.4931 36.0587 30.5651 35.9307 30.5651 35.776C30.5651 35.6107 30.4851 35.488 30.3251 35.408C30.1704 35.328 29.9224 35.24 29.5811 35.144C29.2504 35.0533 28.9811 34.9653 28.7731 34.88C28.5651 34.7947 28.3838 34.664 28.2291 34.488C28.0798 34.312 28.0051 34.08 28.0051 33.792C28.0051 33.5573 28.0744 33.344 28.2131 33.152C28.3518 32.9547 28.5491 32.8 28.8051 32.688C29.0664 32.576 29.3651 32.52 29.7011 32.52C30.2024 32.52 30.6051 32.648 30.9091 32.904C31.2184 33.1547 31.3838 33.4987 31.4051 33.936H30.4931C30.4771 33.7387 30.3971 33.5813 30.2531 33.464C30.1091 33.3467 29.9144 33.288 29.6691 33.288C29.4291 33.288 29.2451 33.3333 29.1171 33.424C28.9891 33.5147 28.9251 33.6347 28.9251 33.784C28.9251 33.9013 28.9678 34 29.0531 34.08C29.1384 34.16 29.2424 34.224 29.3651 34.272C29.4878 34.3147 29.6691 34.3707 29.9091 34.44C30.2291 34.5253 30.4904 34.6133 30.6931 34.704C30.9011 34.7893 31.0798 34.9173 31.2291 35.088C31.3784 35.2587 31.4558 35.4853 31.4611 35.768C31.4611 36.0187 31.3918 36.2427 31.2531 36.44C31.1144 36.6373 30.9171 36.792 30.6611 36.904C30.4104 37.016 30.1144 37.072 29.7731 37.072ZM33.8124 34.776C33.8124 34.3333 33.903 33.9413 34.0844 33.6C34.271 33.2587 34.5217 32.9947 34.8364 32.808C35.1564 32.616 35.511 32.52 35.9004 32.52C36.1884 32.52 36.471 32.584 36.7484 32.712C37.031 32.8347 37.255 33 37.4204 33.208V31.08H38.3404V37H37.4204V36.336C37.271 36.5493 37.063 36.7253 36.7964 36.864C36.535 37.0027 36.2337 37.072 35.8924 37.072C35.5084 37.072 35.1564 36.976 34.8364 36.784C34.5217 36.5867 34.271 36.3147 34.0844 35.968C33.903 35.616 33.8124 35.2187 33.8124 34.776ZM37.4204 34.792C37.4204 34.488 37.3564 34.224 37.2284 34C37.1057 33.776 36.943 33.6053 36.7404 33.488C36.5377 33.3707 36.319 33.312 36.0844 33.312C35.8497 33.312 35.631 33.3707 35.4284 33.488C35.2257 33.6 35.0604 33.768 34.9324 33.992C34.8097 34.2107 34.7484 34.472 34.7484 34.776C34.7484 35.08 34.8097 35.3467 34.9324 35.576C35.0604 35.8053 35.2257 35.9813 35.4284 36.104C35.6364 36.2213 35.855 36.28 36.0844 36.28C36.319 36.28 36.5377 36.2213 36.7404 36.104C36.943 35.9867 37.1057 35.816 37.2284 35.592C37.3564 35.3627 37.4204 35.096 37.4204 34.792ZM39.0301 34.776C39.0301 34.3333 39.1208 33.9413 39.3021 33.6C39.4888 33.2587 39.7394 32.9947 40.0541 32.808C40.3741 32.616 40.7261 32.52 41.1101 32.52C41.4568 32.52 41.7581 32.5893 42.0141 32.728C42.2754 32.8613 42.4834 33.0293 42.6381 33.232V32.592H43.5581V37H42.6381V36.344C42.4834 36.552 42.2728 36.7253 42.0061 36.864C41.7394 37.0027 41.4354 37.072 41.0941 37.072C40.7154 37.072 40.3688 36.976 40.0541 36.784C39.7394 36.5867 39.4888 36.3147 39.3021 35.968C39.1208 35.616 39.0301 35.2187 39.0301 34.776ZM42.6381 34.792C42.6381 34.488 42.5741 34.224 42.4461 34C42.3234 33.776 42.1608 33.6053 41.9581 33.488C41.7554 33.3707 41.5368 33.312 41.3021 33.312C41.0674 33.312 40.8488 33.3707 40.6461 33.488C40.4434 33.6 40.2781 33.768 40.1501 33.992C40.0274 34.2107 39.9661 34.472 39.9661 34.776C39.9661 35.08 40.0274 35.3467 40.1501 35.576C40.2781 35.8053 40.4434 35.9813 40.6461 36.104C40.8541 36.2213 41.0728 36.28 41.3021 36.28C41.5368 36.28 41.7554 36.2213 41.9581 36.104C42.1608 35.9867 42.3234 35.816 42.4461 35.592C42.5741 35.3627 42.6381 35.096 42.6381 34.792ZM48.5438 32.592V37H47.6318V36.48C47.4878 36.6613 47.2985 36.8053 47.0638 36.912C46.8345 37.0133 46.5892 37.064 46.3278 37.064C45.9811 37.064 45.6691 36.992 45.3918 36.848C45.1198 36.704 44.9038 36.4907 44.7438 36.208C44.5891 35.9253 44.5118 35.584 44.5118 35.184V32.592H45.4158V35.048C45.4158 35.4427 45.5145 35.7467 45.7118 35.96C45.9091 36.168 46.1785 36.272 46.5198 36.272C46.8612 36.272 47.1305 36.168 47.3278 35.96C47.5305 35.7467 47.6318 35.4427 47.6318 35.048V32.592H48.5438ZM53.583 34.688C53.583 34.8533 53.5723 35.0027 53.551 35.136H50.183C50.2097 35.488 50.3403 35.7707 50.575 35.984C50.8097 36.1973 51.0977 36.304 51.439 36.304C51.9297 36.304 52.2763 36.0987 52.479 35.688H53.463C53.3297 36.0933 53.087 36.4267 52.735 36.688C52.3883 36.944 51.9563 37.072 51.439 37.072C51.0177 37.072 50.639 36.9787 50.303 36.792C49.9723 36.6 49.711 36.3333 49.519 35.992C49.3323 35.6453 49.239 35.2453 49.239 34.792C49.239 34.3387 49.3297 33.9413 49.511 33.6C49.6977 33.2533 49.9563 32.9867 50.287 32.8C50.623 32.6133 51.007 32.52 51.439 32.52C51.855 32.52 52.2257 32.6107 52.551 32.792C52.8763 32.9733 53.1297 33.2293 53.311 33.56C53.4923 33.8853 53.583 34.2613 53.583 34.688ZM52.631 34.4C52.6257 34.064 52.5057 33.7947 52.271 33.592C52.0363 33.3893 51.7457 33.288 51.399 33.288C51.0843 33.288 50.815 33.3893 50.591 33.592C50.367 33.7893 50.2337 34.0587 50.191 34.4H52.631ZM55.1883 33.232C55.3217 33.008 55.4977 32.8347 55.7163 32.712C55.9403 32.584 56.2043 32.52 56.5083 32.52V33.464H56.2763C55.919 33.464 55.647 33.5547 55.4603 33.736C55.279 33.9173 55.1883 34.232 55.1883 34.68V37H54.2763V32.592H55.1883V33.232ZM58.2065 33.336V35.776C58.2065 35.9413 58.2438 36.0613 58.3185 36.136C58.3985 36.2053 58.5318 36.24 58.7185 36.24H59.2785V37H58.5585C58.1478 37 57.8332 36.904 57.6145 36.712C57.3958 36.52 57.2865 36.208 57.2865 35.776V33.336H56.7665V32.592H57.2865V31.496H58.2065V32.592H59.2785V33.336H58.2065ZM65.4289 31.952H62.7489V33.544C62.8609 33.3947 63.0262 33.2693 63.2449 33.168C63.4689 33.0667 63.7062 33.016 63.9569 33.016C64.4049 33.016 64.7676 33.112 65.0449 33.304C65.3276 33.496 65.5276 33.7387 65.6449 34.032C65.7676 34.3253 65.8289 34.6347 65.8289 34.96C65.8289 35.3547 65.7516 35.7067 65.5969 36.016C65.4476 36.32 65.2209 36.56 64.9169 36.736C64.6182 36.912 64.2502 37 63.8129 37C63.2316 37 62.7649 36.856 62.4129 36.568C62.0609 36.28 61.8502 35.8987 61.7809 35.424H62.6689C62.7276 35.6747 62.8582 35.8747 63.0609 36.024C63.2636 36.168 63.5169 36.24 63.8209 36.24C64.1996 36.24 64.4822 36.1253 64.6689 35.896C64.8609 35.6667 64.9569 35.3627 64.9569 34.984C64.9569 34.6 64.8609 34.3067 64.6689 34.104C64.4769 33.896 64.1942 33.792 63.8209 33.792C63.5596 33.792 63.3382 33.8587 63.1569 33.992C62.9809 34.12 62.8529 34.296 62.7729 34.52H61.9089V31.152H65.4289V31.952ZM67.6941 35.904L66.7261 38.112H66.1341L66.7021 35.904H67.6941ZM68.0469 32V31.168H69.7109V37H68.7909V32H68.0469ZM78.6096 31.44V37H77.6976V33.192L76.0016 37H75.3696L73.6656 33.192V37H72.7536V31.44H73.7376L75.6896 35.8L77.6336 31.44H78.6096ZM80.0681 32.008C79.9028 32.008 79.7641 31.952 79.6521 31.84C79.5401 31.728 79.4841 31.5893 79.4841 31.424C79.4841 31.2587 79.5401 31.12 79.6521 31.008C79.7641 30.896 79.9028 30.84 80.0681 30.84C80.2281 30.84 80.3641 30.896 80.4761 31.008C80.5881 31.12 80.6441 31.2587 80.6441 31.424C80.6441 31.5893 80.5881 31.728 80.4761 31.84C80.3641 31.952 80.2281 32.008 80.0681 32.008ZM80.5161 32.592V37H79.6041V32.592H80.5161ZM83.7333 32.52C84.08 32.52 84.3893 32.592 84.6613 32.736C84.9387 32.88 85.1547 33.0933 85.3093 33.376C85.464 33.6587 85.5413 34 85.5413 34.4V37H84.6373V34.536C84.6373 34.1413 84.5387 33.84 84.3413 33.632C84.144 33.4187 83.8747 33.312 83.5333 33.312C83.192 33.312 82.92 33.4187 82.7173 33.632C82.52 33.84 82.4213 34.1413 82.4213 34.536V37H81.5093V32.592H82.4213V33.096C82.5707 32.9147 82.76 32.7733 82.9893 32.672C83.224 32.5707 83.472 32.52 83.7333 32.52ZM90.4925 32.592V37H89.5805V36.48C89.4365 36.6613 89.2472 36.8053 89.0125 36.912C88.7832 37.0133 88.5378 37.064 88.2765 37.064C87.9298 37.064 87.6178 36.992 87.3405 36.848C87.0685 36.704 86.8525 36.4907 86.6925 36.208C86.5378 35.9253 86.4605 35.584 86.4605 35.184V32.592H87.3645V35.048C87.3645 35.4427 87.4632 35.7467 87.6605 35.96C87.8578 36.168 88.1272 36.272 88.4685 36.272C88.8098 36.272 89.0792 36.168 89.2765 35.96C89.4792 35.7467 89.5805 35.4427 89.5805 35.048V32.592H90.4925ZM92.5557 33.336V35.776C92.5557 35.9413 92.593 36.0613 92.6677 36.136C92.7477 36.2053 92.881 36.24 93.0677 36.24H93.6277V37H92.9077C92.497 37 92.1823 36.904 91.9637 36.712C91.745 36.52 91.6357 36.208 91.6357 35.776V33.336H91.1157V32.592H91.6357V31.496H92.5557V32.592H93.6277V33.336H92.5557ZM98.3041 34.688C98.3041 34.8533 98.2934 35.0027 98.2721 35.136H94.9041C94.9308 35.488 95.0614 35.7707 95.2961 35.984C95.5308 36.1973 95.8188 36.304 96.1601 36.304C96.6508 36.304 96.9974 36.0987 97.2001 35.688H98.1841C98.0508 36.0933 97.8081 36.4267 97.4561 36.688C97.1094 36.944 96.6774 37.072 96.1601 37.072C95.7388 37.072 95.3601 36.9787 95.0241 36.792C94.6934 36.6 94.4321 36.3333 94.2401 35.992C94.0534 35.6453 93.9601 35.2453 93.9601 34.792C93.9601 34.3387 94.0508 33.9413 94.2321 33.6C94.4188 33.2533 94.6774 32.9867 95.0081 32.8C95.3441 32.6133 95.7281 32.52 96.1601 32.52C96.5761 32.52 96.9468 32.6107 97.2721 32.792C97.5974 32.9733 97.8508 33.2293 98.0321 33.56C98.2134 33.8853 98.3041 34.2613 98.3041 34.688ZM97.3521 34.4C97.3468 34.064 97.2268 33.7947 96.9921 33.592C96.7574 33.3893 96.4668 33.288 96.1201 33.288C95.8054 33.288 95.5361 33.3893 95.3121 33.592C95.0881 33.7893 94.9548 34.0587 94.9121 34.4H97.3521ZM101.221 32.52C101.568 32.52 101.877 32.592 102.149 32.736C102.427 32.88 102.643 33.0933 102.797 33.376C102.952 33.6587 103.029 34 103.029 34.4V37H102.125V34.536C102.125 34.1413 102.027 33.84 101.829 33.632C101.632 33.4187 101.363 33.312 101.021 33.312C100.68 33.312 100.408 33.4187 100.205 33.632C100.008 33.84 99.9095 34.1413 99.9095 34.536V37H98.9975V32.592H99.9095V33.096C100.059 32.9147 100.248 32.7733 100.477 32.672C100.712 32.5707 100.96 32.52 101.221 32.52ZM104.989 35.904L104.021 38.112H103.429L103.997 35.904H104.989ZM111.447 32.592V37H110.535V36.48C110.391 36.6613 110.202 36.8053 109.967 36.912C109.738 37.0133 109.493 37.064 109.231 37.064C108.885 37.064 108.573 36.992 108.295 36.848C108.023 36.704 107.807 36.4907 107.647 36.208C107.493 35.9253 107.415 35.584 107.415 35.184V32.592H108.319V35.048C108.319 35.4427 108.418 35.7467 108.615 35.96C108.813 36.168 109.082 36.272 109.423 36.272C109.765 36.272 110.034 36.168 110.231 35.96C110.434 35.7467 110.535 35.4427 110.535 35.048V32.592H111.447ZM117.782 32.52C118.129 32.52 118.438 32.592 118.71 32.736C118.988 32.88 119.204 33.0933 119.358 33.376C119.518 33.6587 119.598 34 119.598 34.4V37H118.694V34.536C118.694 34.1413 118.596 33.84 118.398 33.632C118.201 33.4187 117.932 33.312 117.59 33.312C117.249 33.312 116.977 33.4187 116.774 33.632C116.577 33.84 116.478 34.1413 116.478 34.536V37H115.574V34.536C115.574 34.1413 115.476 33.84 115.278 33.632C115.081 33.4187 114.812 33.312 114.47 33.312C114.129 33.312 113.857 33.4187 113.654 33.632C113.457 33.84 113.358 34.1413 113.358 34.536V37H112.446V32.592H113.358V33.096C113.508 32.9147 113.697 32.7733 113.926 32.672C114.156 32.5707 114.401 32.52 114.662 32.52C115.014 32.52 115.329 32.5947 115.606 32.744C115.884 32.8933 116.097 33.1093 116.246 33.392C116.38 33.1253 116.588 32.9147 116.87 32.76C117.153 32.6 117.457 32.52 117.782 32.52ZM123.341 31.44V37H122.429V31.44H123.341ZM126.614 32.52C126.95 32.52 127.249 32.592 127.51 32.736C127.777 32.88 127.985 33.0933 128.134 33.376C128.289 33.6587 128.366 34 128.366 34.4V37H127.462V34.536C127.462 34.1413 127.363 33.84 127.166 33.632C126.969 33.4187 126.699 33.312 126.358 33.312C126.017 33.312 125.745 33.4187 125.542 33.632C125.345 33.84 125.246 34.1413 125.246 34.536V37H124.334V31.08H125.246V33.104C125.401 32.9173 125.595 32.7733 125.83 32.672C126.07 32.5707 126.331 32.52 126.614 32.52ZM130.237 33.232C130.371 33.008 130.547 32.8347 130.765 32.712C130.989 32.584 131.253 32.52 131.557 32.52V33.464H131.325C130.968 33.464 130.696 33.5547 130.509 33.736C130.328 33.9173 130.237 34.232 130.237 34.68V37H129.325V32.592H130.237V33.232ZM136.231 34.688C136.231 34.8533 136.221 35.0027 136.199 35.136H132.831C132.858 35.488 132.989 35.7707 133.223 35.984C133.458 36.1973 133.746 36.304 134.087 36.304C134.578 36.304 134.925 36.0987 135.127 35.688H136.111C135.978 36.0933 135.735 36.4267 135.383 36.688C135.037 36.944 134.605 37.072 134.087 37.072C133.666 37.072 133.287 36.9787 132.951 36.792C132.621 36.6 132.359 36.3333 132.167 35.992C131.981 35.6453 131.887 35.2453 131.887 34.792C131.887 34.3387 131.978 33.9413 132.159 33.6C132.346 33.2533 132.605 32.9867 132.935 32.8C133.271 32.6133 133.655 32.52 134.087 32.52C134.503 32.52 134.874 32.6107 135.199 32.792C135.525 32.9733 135.778 33.2293 135.959 33.56C136.141 33.8853 136.231 34.2613 136.231 34.688ZM135.279 34.4C135.274 34.064 135.154 33.7947 134.919 33.592C134.685 33.3893 134.394 33.288 134.047 33.288C133.733 33.288 133.463 33.3893 133.239 33.592C133.015 33.7893 132.882 34.0587 132.839 34.4H135.279ZM146.039 31.44L144.391 37H143.359L142.191 32.792L140.951 37L139.927 37.008L138.351 31.44H139.319L140.471 35.968L141.719 31.44H142.743L143.903 35.944L145.063 31.44H146.039ZM150.627 34.688C150.627 34.8533 150.616 35.0027 150.595 35.136H147.227C147.253 35.488 147.384 35.7707 147.619 35.984C147.853 36.1973 148.141 36.304 148.483 36.304C148.973 36.304 149.32 36.0987 149.523 35.688H150.507C150.373 36.0933 150.131 36.4267 149.779 36.688C149.432 36.944 149 37.072 148.483 37.072C148.061 37.072 147.683 36.9787 147.347 36.792C147.016 36.6 146.755 36.3333 146.563 35.992C146.376 35.6453 146.283 35.2453 146.283 34.792C146.283 34.3387 146.373 33.9413 146.555 33.6C146.741 33.2533 147 32.9867 147.331 32.8C147.667 32.6133 148.051 32.52 148.483 32.52C148.899 32.52 149.269 32.6107 149.595 32.792C149.92 32.9733 150.173 33.2293 150.355 33.56C150.536 33.8853 150.627 34.2613 150.627 34.688ZM149.675 34.4C149.669 34.064 149.549 33.7947 149.315 33.592C149.08 33.3893 148.789 33.288 148.443 33.288C148.128 33.288 147.859 33.3893 147.635 33.592C147.411 33.7893 147.277 34.0587 147.235 34.4H149.675ZM152.232 33.248C152.387 33.0347 152.597 32.8613 152.864 32.728C153.136 32.5893 153.437 32.52 153.768 32.52C154.157 32.52 154.509 32.6133 154.824 32.8C155.139 32.9867 155.387 33.2533 155.568 33.6C155.749 33.9413 155.84 34.3333 155.84 34.776C155.84 35.2187 155.749 35.616 155.568 35.968C155.387 36.3147 155.136 36.5867 154.816 36.784C154.501 36.976 154.152 37.072 153.768 37.072C153.427 37.072 153.123 37.0053 152.856 36.872C152.595 36.7387 152.387 36.568 152.232 36.36V37H151.32V31.08H152.232V33.248ZM154.912 34.776C154.912 34.472 154.848 34.2107 154.72 33.992C154.597 33.768 154.432 33.6 154.224 33.488C154.021 33.3707 153.803 33.312 153.568 33.312C153.339 33.312 153.12 33.3707 152.912 33.488C152.709 33.6053 152.544 33.776 152.416 34C152.293 34.224 152.232 34.488 152.232 34.792C152.232 35.096 152.293 35.3627 152.416 35.592C152.544 35.816 152.709 35.9867 152.912 36.104C153.12 36.2213 153.339 36.28 153.568 36.28C153.803 36.28 154.021 36.2213 154.224 36.104C154.432 35.9813 154.597 35.8053 154.72 35.576C154.848 35.3467 154.912 35.08 154.912 34.776ZM158.138 37.072C157.791 37.072 157.479 37.0107 157.202 36.888C156.93 36.76 156.714 36.5893 156.554 36.376C156.394 36.1573 156.309 35.9147 156.298 35.648H157.242C157.258 35.8347 157.346 35.992 157.506 36.12C157.671 36.2427 157.877 36.304 158.122 36.304C158.378 36.304 158.575 36.256 158.714 36.16C158.858 36.0587 158.93 35.9307 158.93 35.776C158.93 35.6107 158.85 35.488 158.69 35.408C158.535 35.328 158.287 35.24 157.946 35.144C157.615 35.0533 157.346 34.9653 157.138 34.88C156.93 34.7947 156.749 34.664 156.594 34.488C156.445 34.312 156.37 34.08 156.37 33.792C156.37 33.5573 156.439 33.344 156.578 33.152C156.717 32.9547 156.914 32.8 157.17 32.688C157.431 32.576 157.73 32.52 158.066 32.52C158.567 32.52 158.97 32.648 159.274 32.904C159.583 33.1547 159.749 33.4987 159.77 33.936H158.858C158.842 33.7387 158.762 33.5813 158.618 33.464C158.474 33.3467 158.279 33.288 158.034 33.288C157.794 33.288 157.61 33.3333 157.482 33.424C157.354 33.5147 157.29 33.6347 157.29 33.784C157.29 33.9013 157.333 34 157.418 34.08C157.503 34.16 157.607 34.224 157.73 34.272C157.853 34.3147 158.034 34.3707 158.274 34.44C158.594 34.5253 158.855 34.6133 159.058 34.704C159.266 34.7893 159.445 34.9173 159.594 35.088C159.743 35.2587 159.821 35.4853 159.826 35.768C159.826 36.0187 159.757 36.2427 159.618 36.44C159.479 36.6373 159.282 36.792 159.026 36.904C158.775 37.016 158.479 37.072 158.138 37.072ZM161.071 32.008C160.906 32.008 160.767 31.952 160.655 31.84C160.543 31.728 160.487 31.5893 160.487 31.424C160.487 31.2587 160.543 31.12 160.655 31.008C160.767 30.896 160.906 30.84 161.071 30.84C161.231 30.84 161.367 30.896 161.479 31.008C161.591 31.12 161.647 31.2587 161.647 31.424C161.647 31.5893 161.591 31.728 161.479 31.84C161.367 31.952 161.231 32.008 161.071 32.008ZM161.519 32.592V37H160.607V32.592H161.519ZM163.576 33.336V35.776C163.576 35.9413 163.614 36.0613 163.688 36.136C163.768 36.2053 163.902 36.24 164.088 36.24H164.648V37H163.928C163.518 37 163.203 36.904 162.984 36.712C162.766 36.52 162.656 36.208 162.656 35.776V33.336H162.136V32.592H162.656V31.496H163.576V32.592H164.648V33.336H163.576ZM169.325 34.688C169.325 34.8533 169.314 35.0027 169.293 35.136H165.925C165.951 35.488 166.082 35.7707 166.317 35.984C166.551 36.1973 166.839 36.304 167.181 36.304C167.671 36.304 168.018 36.0987 168.221 35.688H169.205C169.071 36.0933 168.829 36.4267 168.477 36.688C168.13 36.944 167.698 37.072 167.181 37.072C166.759 37.072 166.381 36.9787 166.045 36.792C165.714 36.6 165.453 36.3333 165.261 35.992C165.074 35.6453 164.981 35.2453 164.981 34.792C164.981 34.3387 165.071 33.9413 165.253 33.6C165.439 33.2533 165.698 32.9867 166.029 32.8C166.365 32.6133 166.749 32.52 167.181 32.52C167.597 32.52 167.967 32.6107 168.293 32.792C168.618 32.9733 168.871 33.2293 169.053 33.56C169.234 33.8853 169.325 34.2613 169.325 34.688ZM168.373 34.4C168.367 34.064 168.247 33.7947 168.013 33.592C167.778 33.3893 167.487 33.288 167.141 33.288C166.826 33.288 166.557 33.3893 166.333 33.592C166.109 33.7893 165.975 34.0587 165.933 34.4H168.373ZM78.0186 48.256H80.0186V49H76.9626V48.256L78.9706 45.336H76.9626V44.592H80.0186V45.336L78.0186 48.256ZM84.7641 44.592V49H83.8521V48.48C83.7081 48.6613 83.5187 48.8053 83.2841 48.912C83.0547 49.0133 82.8094 49.064 82.5481 49.064C82.2014 49.064 81.8894 48.992 81.6121 48.848C81.3401 48.704 81.1241 48.4907 80.9641 48.208C80.8094 47.9253 80.7321 47.584 80.7321 47.184V44.592H81.6361V47.048C81.6361 47.4427 81.7347 47.7467 81.9321 47.96C82.1294 48.168 82.3987 48.272 82.7401 48.272C83.0814 48.272 83.3507 48.168 83.5481 47.96C83.7507 47.7467 83.8521 47.4427 83.8521 47.048V44.592H84.7641ZM89.2372 49.072C88.8906 49.072 88.5786 49.0107 88.3012 48.888C88.0292 48.76 87.8132 48.5893 87.6532 48.376C87.4932 48.1573 87.4079 47.9147 87.3972 47.648H88.3412C88.3572 47.8347 88.4452 47.992 88.6052 48.12C88.7706 48.2427 88.9759 48.304 89.2212 48.304C89.4772 48.304 89.6746 48.256 89.8132 48.16C89.9572 48.0587 90.0292 47.9307 90.0292 47.776C90.0292 47.6107 89.9492 47.488 89.7892 47.408C89.6346 47.328 89.3866 47.24 89.0452 47.144C88.7146 47.0533 88.4452 46.9653 88.2372 46.88C88.0292 46.7947 87.8479 46.664 87.6932 46.488C87.5439 46.312 87.4692 46.08 87.4692 45.792C87.4692 45.5573 87.5386 45.344 87.6772 45.152C87.8159 44.9547 88.0132 44.8 88.2692 44.688C88.5306 44.576 88.8292 44.52 89.1652 44.52C89.6666 44.52 90.0692 44.648 90.3732 44.904C90.6826 45.1547 90.8479 45.4987 90.8692 45.936H89.9572C89.9412 45.7387 89.8612 45.5813 89.7172 45.464C89.5732 45.3467 89.3786 45.288 89.1332 45.288C88.8932 45.288 88.7092 45.3333 88.5812 45.424C88.4532 45.5147 88.3892 45.6347 88.3892 45.784C88.3892 45.9013 88.4319 46 88.5172 46.08C88.6026 46.16 88.7066 46.224 88.8292 46.272C88.9519 46.3147 89.1332 46.3707 89.3732 46.44C89.6932 46.5253 89.9546 46.6133 90.1572 46.704C90.3652 46.7893 90.5439 46.9173 90.6932 47.088C90.8426 47.2587 90.9199 47.4853 90.9252 47.768C90.9252 48.0187 90.8559 48.2427 90.7172 48.44C90.5786 48.6373 90.3812 48.792 90.1252 48.904C89.8746 49.016 89.5786 49.072 89.2372 49.072ZM92.7705 45.336V47.776C92.7705 47.9413 92.8079 48.0613 92.8825 48.136C92.9625 48.2053 93.0959 48.24 93.2825 48.24H93.8425V49H93.1225C92.7119 49 92.3972 48.904 92.1785 48.712C91.9599 48.52 91.8505 48.208 91.8505 47.776V45.336H91.3305V44.592H91.8505V43.496H92.7705V44.592H93.8425V45.336H92.7705ZM94.1749 46.776C94.1749 46.3333 94.2656 45.9413 94.4469 45.6C94.6336 45.2587 94.8843 44.9947 95.1989 44.808C95.5189 44.616 95.8709 44.52 96.2549 44.52C96.6016 44.52 96.9029 44.5893 97.1589 44.728C97.4203 44.8613 97.6283 45.0293 97.7829 45.232V44.592H98.7029V49H97.7829V48.344C97.6283 48.552 97.4176 48.7253 97.1509 48.864C96.8843 49.0027 96.5803 49.072 96.2389 49.072C95.8603 49.072 95.5136 48.976 95.1989 48.784C94.8843 48.5867 94.6336 48.3147 94.4469 47.968C94.2656 47.616 94.1749 47.2187 94.1749 46.776ZM97.7829 46.792C97.7829 46.488 97.7189 46.224 97.5909 46C97.4683 45.776 97.3056 45.6053 97.1029 45.488C96.9003 45.3707 96.6816 45.312 96.4469 45.312C96.2123 45.312 95.9936 45.3707 95.7909 45.488C95.5883 45.6 95.4229 45.768 95.2949 45.992C95.1723 46.2107 95.1109 46.472 95.1109 46.776C95.1109 47.08 95.1723 47.3467 95.2949 47.576C95.4229 47.8053 95.5883 47.9813 95.7909 48.104C95.9989 48.2213 96.2176 48.28 96.4469 48.28C96.6816 48.28 96.9003 48.2213 97.1029 48.104C97.3056 47.9867 97.4683 47.816 97.5909 47.592C97.7189 47.3627 97.7829 47.096 97.7829 46.792ZM100.609 45.232C100.742 45.008 100.918 44.8347 101.137 44.712C101.361 44.584 101.625 44.52 101.929 44.52V45.464H101.697C101.339 45.464 101.067 45.5547 100.881 45.736C100.699 45.9173 100.609 46.232 100.609 46.68V49H99.6967V44.592H100.609V45.232ZM103.627 45.336V47.776C103.627 47.9413 103.664 48.0613 103.739 48.136C103.819 48.2053 103.952 48.24 104.139 48.24H104.699V49H103.979C103.568 49 103.253 48.904 103.035 48.712C102.816 48.52 102.707 48.208 102.707 47.776V45.336H102.187V44.592H102.707V43.496H103.627V44.592H104.699V45.336H103.627ZM109.375 46.688C109.375 46.8533 109.365 47.0027 109.343 47.136H105.975C106.002 47.488 106.133 47.7707 106.367 47.984C106.602 48.1973 106.89 48.304 107.231 48.304C107.722 48.304 108.069 48.0987 108.271 47.688H109.255C109.122 48.0933 108.879 48.4267 108.527 48.688C108.181 48.944 107.749 49.072 107.231 49.072C106.81 49.072 106.431 48.9787 106.095 48.792C105.765 48.6 105.503 48.3333 105.311 47.992C105.125 47.6453 105.031 47.2453 105.031 46.792C105.031 46.3387 105.122 45.9413 105.303 45.6C105.49 45.2533 105.749 44.9867 106.079 44.8C106.415 44.6133 106.799 44.52 107.231 44.52C107.647 44.52 108.018 44.6107 108.343 44.792C108.669 44.9733 108.922 45.2293 109.103 45.56C109.285 45.8853 109.375 46.2613 109.375 46.688ZM108.423 46.4C108.418 46.064 108.298 45.7947 108.063 45.592C107.829 45.3893 107.538 45.288 107.191 45.288C106.877 45.288 106.607 45.3893 106.383 45.592C106.159 45.7893 106.026 46.0587 105.983 46.4H108.423ZM112.293 44.52C112.639 44.52 112.949 44.592 113.221 44.736C113.498 44.88 113.714 45.0933 113.869 45.376C114.023 45.6587 114.101 46 114.101 46.4V49H113.197V46.536C113.197 46.1413 113.098 45.84 112.901 45.632C112.703 45.4187 112.434 45.312 112.093 45.312C111.751 45.312 111.479 45.4187 111.277 45.632C111.079 45.84 110.981 46.1413 110.981 46.536V49H110.069V44.592H110.981V45.096C111.13 44.9147 111.319 44.7733 111.549 44.672C111.783 44.5707 112.031 44.52 112.293 44.52ZM115.428 49.056C115.262 49.056 115.124 49 115.012 48.888C114.9 48.776 114.844 48.6373 114.844 48.472C114.844 48.3067 114.9 48.168 115.012 48.056C115.124 47.944 115.262 47.888 115.428 47.888C115.588 47.888 115.724 47.944 115.836 48.056C115.948 48.168 116.004 48.3067 116.004 48.472C116.004 48.6373 115.948 48.776 115.836 48.888C115.724 49 115.588 49.056 115.428 49.056Z" fill="white"/>
<path d="M18.1564 59.846C18.3084 59.87 18.4464 59.932 18.5704 60.032C18.6984 60.132 18.7984 60.256 18.8704 60.404C18.9464 60.552 18.9844 60.71 18.9844 60.878C18.9844 61.09 18.9304 61.282 18.8224 61.454C18.7144 61.622 18.5564 61.756 18.3484 61.856C18.1444 61.952 17.9024 62 17.6224 62H16.0624V57.818H17.5624C17.8464 57.818 18.0884 57.866 18.2884 57.962C18.4884 58.054 18.6384 58.18 18.7384 58.34C18.8384 58.5 18.8884 58.68 18.8884 58.88C18.8884 59.128 18.8204 59.334 18.6844 59.498C18.5524 59.658 18.3764 59.774 18.1564 59.846ZM16.6084 59.624H17.5264C17.7824 59.624 17.9804 59.564 18.1204 59.444C18.2604 59.324 18.3304 59.158 18.3304 58.946C18.3304 58.734 18.2604 58.568 18.1204 58.448C17.9804 58.328 17.7784 58.268 17.5144 58.268H16.6084V59.624ZM17.5744 61.55C17.8464 61.55 18.0584 61.486 18.2104 61.358C18.3624 61.23 18.4384 61.052 18.4384 60.824C18.4384 60.592 18.3584 60.41 18.1984 60.278C18.0384 60.142 17.8244 60.074 17.5564 60.074H16.6084V61.55H17.5744ZM20.0839 57.56V62H19.5379V57.56H20.0839ZM21.0923 58.178C20.9883 58.178 20.9003 58.142 20.8283 58.07C20.7563 57.998 20.7203 57.91 20.7203 57.806C20.7203 57.702 20.7563 57.614 20.8283 57.542C20.9003 57.47 20.9883 57.434 21.0923 57.434C21.1923 57.434 21.2763 57.47 21.3443 57.542C21.4163 57.614 21.4523 57.702 21.4523 57.806C21.4523 57.91 21.4163 57.998 21.3443 58.07C21.2763 58.142 21.1923 58.178 21.0923 58.178ZM21.3563 58.712V62H20.8103V58.712H21.3563ZM22.7487 59.162V61.1C22.7487 61.26 22.7827 61.374 22.8507 61.442C22.9187 61.506 23.0367 61.538 23.2047 61.538H23.6067V62H23.1147C22.8107 62 22.5827 61.93 22.4307 61.79C22.2787 61.65 22.2027 61.42 22.2027 61.1V59.162H21.7767V58.712H22.2027V57.884H22.7487V58.712H23.6067V59.162H22.7487ZM24.4722 61.55H26.0862V62H23.8482V61.55L25.4442 59.156H23.8602V58.712H26.0742V59.156L24.4722 61.55ZM27.7545 62.054C27.5025 62.054 27.2765 62.012 27.0765 61.928C26.8765 61.84 26.7185 61.72 26.6025 61.568C26.4865 61.412 26.4225 61.234 26.4105 61.034H26.9745C26.9905 61.198 27.0665 61.332 27.2025 61.436C27.3425 61.54 27.5245 61.592 27.7485 61.592C27.9565 61.592 28.1205 61.546 28.2405 61.454C28.3605 61.362 28.4205 61.246 28.4205 61.106C28.4205 60.962 28.3565 60.856 28.2285 60.788C28.1005 60.716 27.9025 60.646 27.6345 60.578C27.3905 60.514 27.1905 60.45 27.0345 60.386C26.8825 60.318 26.7505 60.22 26.6385 60.092C26.5305 59.96 26.4765 59.788 26.4765 59.576C26.4765 59.408 26.5265 59.254 26.6265 59.114C26.7265 58.974 26.8685 58.864 27.0525 58.784C27.2365 58.7 27.4465 58.658 27.6825 58.658C28.0465 58.658 28.3405 58.75 28.5645 58.934C28.7885 59.118 28.9085 59.37 28.9245 59.69H28.3785C28.3665 59.518 28.2965 59.38 28.1685 59.276C28.0445 59.172 27.8765 59.12 27.6645 59.12C27.4685 59.12 27.3125 59.162 27.1965 59.246C27.0805 59.33 27.0225 59.44 27.0225 59.576C27.0225 59.684 27.0565 59.774 27.1245 59.846C27.1965 59.914 27.2845 59.97 27.3885 60.014C27.4965 60.054 27.6445 60.1 27.8325 60.152C28.0685 60.216 28.2605 60.28 28.4085 60.344C28.5565 60.404 28.6825 60.496 28.7865 60.62C28.8945 60.744 28.9505 60.906 28.9545 61.106C28.9545 61.286 28.9045 61.448 28.8045 61.592C28.7045 61.736 28.5625 61.85 28.3785 61.934C28.1985 62.014 27.9905 62.054 27.7545 62.054ZM29.3171 60.35C29.3171 60.01 29.3851 59.714 29.5211 59.462C29.6571 59.206 29.8451 59.008 30.0851 58.868C30.3291 58.728 30.6071 58.658 30.9191 58.658C31.3231 58.658 31.6551 58.756 31.9151 58.952C32.1791 59.148 32.3531 59.42 32.4371 59.768H31.8491C31.7931 59.568 31.6831 59.41 31.5191 59.294C31.3591 59.178 31.1591 59.12 30.9191 59.12C30.6071 59.12 30.3551 59.228 30.1631 59.444C29.9711 59.656 29.8751 59.958 29.8751 60.35C29.8751 60.746 29.9711 61.052 30.1631 61.268C30.3551 61.484 30.6071 61.592 30.9191 61.592C31.1591 61.592 31.3591 61.536 31.5191 61.424C31.6791 61.312 31.7891 61.152 31.8491 60.944H32.4371C32.3491 61.28 32.1731 61.55 31.9091 61.754C31.6451 61.954 31.3151 62.054 30.9191 62.054C30.6071 62.054 30.3291 61.984 30.0851 61.844C29.8451 61.704 29.6571 61.506 29.5211 61.25C29.3851 60.994 29.3171 60.694 29.3171 60.35ZM34.5935 58.652C34.8415 58.652 35.0655 58.706 35.2655 58.814C35.4655 58.918 35.6215 59.076 35.7335 59.288C35.8495 59.5 35.9075 59.758 35.9075 60.062V62H35.3675V60.14C35.3675 59.812 35.2855 59.562 35.1215 59.39C34.9575 59.214 34.7335 59.126 34.4495 59.126C34.1615 59.126 33.9315 59.216 33.7595 59.396C33.5915 59.576 33.5075 59.838 33.5075 60.182V62H32.9615V57.56H33.5075V59.18C33.6155 59.012 33.7635 58.882 33.9515 58.79C34.1435 58.698 34.3575 58.652 34.5935 58.652ZM38.1972 58.652C38.5972 58.652 38.9212 58.774 39.1692 59.018C39.4172 59.258 39.5412 59.606 39.5412 60.062V62H39.0012V60.14C39.0012 59.812 38.9192 59.562 38.7552 59.39C38.5912 59.214 38.3672 59.126 38.0832 59.126C37.7952 59.126 37.5652 59.216 37.3932 59.396C37.2252 59.576 37.1412 59.838 37.1412 60.182V62H36.5952V58.712H37.1412V59.18C37.2492 59.012 37.3952 58.882 37.5792 58.79C37.7672 58.698 37.9732 58.652 38.1972 58.652ZM43.229 60.23C43.229 60.334 43.223 60.444 43.211 60.56H40.583C40.603 60.884 40.713 61.138 40.913 61.322C41.117 61.502 41.363 61.592 41.651 61.592C41.887 61.592 42.083 61.538 42.239 61.43C42.399 61.318 42.511 61.17 42.575 60.986H43.163C43.075 61.302 42.899 61.56 42.635 61.76C42.371 61.956 42.043 62.054 41.651 62.054C41.339 62.054 41.059 61.984 40.811 61.844C40.567 61.704 40.375 61.506 40.235 61.25C40.095 60.99 40.025 60.69 40.025 60.35C40.025 60.01 40.093 59.712 40.229 59.456C40.365 59.2 40.555 59.004 40.799 58.868C41.047 58.728 41.331 58.658 41.651 58.658C41.963 58.658 42.239 58.726 42.479 58.862C42.719 58.998 42.903 59.186 43.031 59.426C43.163 59.662 43.229 59.93 43.229 60.23ZM42.665 60.116C42.665 59.908 42.619 59.73 42.527 59.582C42.435 59.43 42.309 59.316 42.149 59.24C41.993 59.16 41.819 59.12 41.627 59.12C41.351 59.12 41.115 59.208 40.919 59.384C40.727 59.56 40.617 59.804 40.589 60.116H42.665ZM44.2915 57.56V62H43.7455V57.56H44.2915ZM45.5639 57.56V62H45.0179V57.56H45.5639ZM49.2904 60.23C49.2904 60.334 49.2844 60.444 49.2724 60.56H46.6444C46.6644 60.884 46.7744 61.138 46.9744 61.322C47.1784 61.502 47.4244 61.592 47.7124 61.592C47.9484 61.592 48.1444 61.538 48.3004 61.43C48.4604 61.318 48.5724 61.17 48.6364 60.986H49.2244C49.1364 61.302 48.9604 61.56 48.6964 61.76C48.4324 61.956 48.1044 62.054 47.7124 62.054C47.4004 62.054 47.1204 61.984 46.8724 61.844C46.6284 61.704 46.4364 61.506 46.2964 61.25C46.1564 60.99 46.0864 60.69 46.0864 60.35C46.0864 60.01 46.1544 59.712 46.2904 59.456C46.4264 59.2 46.6164 59.004 46.8604 58.868C47.1084 58.728 47.3924 58.658 47.7124 58.658C48.0244 58.658 48.3004 58.726 48.5404 58.862C48.7804 58.998 48.9644 59.186 49.0924 59.426C49.2244 59.662 49.2904 59.93 49.2904 60.23ZM48.7264 60.116C48.7264 59.908 48.6804 59.73 48.5884 59.582C48.4964 59.43 48.3704 59.316 48.2104 59.24C48.0544 59.16 47.8804 59.12 47.6884 59.12C47.4124 59.12 47.1764 59.208 46.9804 59.384C46.7884 59.56 46.6784 59.804 46.6504 60.116H48.7264ZM51.7484 61.556H53.2124V62H51.2024V57.818H51.7484V61.556ZM53.8701 58.178C53.7661 58.178 53.6781 58.142 53.6061 58.07C53.5341 57.998 53.4981 57.91 53.4981 57.806C53.4981 57.702 53.5341 57.614 53.6061 57.542C53.6781 57.47 53.7661 57.434 53.8701 57.434C53.9701 57.434 54.0541 57.47 54.1221 57.542C54.1941 57.614 54.2301 57.702 54.2301 57.806C54.2301 57.91 54.1941 57.998 54.1221 58.07C54.0541 58.142 53.9701 58.178 53.8701 58.178ZM54.1341 58.712V62H53.5881V58.712H54.1341ZM57.8605 60.23C57.8605 60.334 57.8545 60.444 57.8425 60.56H55.2145C55.2345 60.884 55.3445 61.138 55.5445 61.322C55.7485 61.502 55.9945 61.592 56.2825 61.592C56.5185 61.592 56.7145 61.538 56.8705 61.43C57.0305 61.318 57.1425 61.17 57.2065 60.986H57.7945C57.7065 61.302 57.5305 61.56 57.2665 61.76C57.0025 61.956 56.6745 62.054 56.2825 62.054C55.9705 62.054 55.6905 61.984 55.4425 61.844C55.1985 61.704 55.0065 61.506 54.8665 61.25C54.7265 60.99 54.6565 60.69 54.6565 60.35C54.6565 60.01 54.7245 59.712 54.8605 59.456C54.9965 59.2 55.1865 59.004 55.4305 58.868C55.6785 58.728 55.9625 58.658 56.2825 58.658C56.5945 58.658 56.8705 58.726 57.1105 58.862C57.3505 58.998 57.5345 59.186 57.6625 59.426C57.7945 59.662 57.8605 59.93 57.8605 60.23ZM57.2965 60.116C57.2965 59.908 57.2505 59.73 57.1585 59.582C57.0665 59.43 56.9405 59.316 56.7805 59.24C56.6245 59.16 56.4505 59.12 56.2585 59.12C55.9825 59.12 55.7465 59.208 55.5505 59.384C55.3585 59.56 55.2485 59.804 55.2205 60.116H57.2965ZM59.7151 59.162H59.0251V62H58.4791V59.162H58.0531V58.712H58.4791V58.478C58.4791 58.11 58.5731 57.842 58.7611 57.674C58.9531 57.502 59.2591 57.416 59.6791 57.416V57.872C59.4391 57.872 59.2691 57.92 59.1691 58.016C59.0731 58.108 59.0251 58.262 59.0251 58.478V58.712H59.7151V59.162ZM63.1475 60.23C63.1475 60.334 63.1415 60.444 63.1295 60.56H60.5015C60.5215 60.884 60.6315 61.138 60.8315 61.322C61.0355 61.502 61.2815 61.592 61.5695 61.592C61.8055 61.592 62.0015 61.538 62.1575 61.43C62.3175 61.318 62.4295 61.17 62.4935 60.986H63.0815C62.9935 61.302 62.8175 61.56 62.5535 61.76C62.2895 61.956 61.9615 62.054 61.5695 62.054C61.2575 62.054 60.9775 61.984 60.7295 61.844C60.4855 61.704 60.2935 61.506 60.1535 61.25C60.0135 60.99 59.9435 60.69 59.9435 60.35C59.9435 60.01 60.0115 59.712 60.1475 59.456C60.2835 59.2 60.4735 59.004 60.7175 58.868C60.9655 58.728 61.2495 58.658 61.5695 58.658C61.8815 58.658 62.1575 58.726 62.3975 58.862C62.6375 58.998 62.8215 59.186 62.9495 59.426C63.0815 59.662 63.1475 59.93 63.1475 60.23ZM62.5835 60.116C62.5835 59.908 62.5375 59.73 62.4455 59.582C62.3535 59.43 62.2275 59.316 62.0675 59.24C61.9115 59.16 61.7375 59.12 61.5455 59.12C61.2695 59.12 61.0335 59.208 60.8375 59.384C60.6455 59.56 60.5355 59.804 60.5075 60.116H62.5835ZM64.2101 59.246C64.3061 59.058 64.4421 58.912 64.6181 58.808C64.7981 58.704 65.0161 58.652 65.2721 58.652V59.216H65.1281C64.5161 59.216 64.2101 59.548 64.2101 60.212V62H63.6641V58.712H64.2101V59.246ZM68.6142 58.712V62H68.0682V61.514C67.9642 61.682 67.8182 61.814 67.6302 61.91C67.4462 62.002 67.2422 62.048 67.0182 62.048C66.7622 62.048 66.5322 61.996 66.3282 61.892C66.1242 61.784 65.9622 61.624 65.8422 61.412C65.7262 61.2 65.6682 60.942 65.6682 60.638V58.712H66.2082V60.566C66.2082 60.89 66.2902 61.14 66.4542 61.316C66.6182 61.488 66.8422 61.574 67.1262 61.574C67.4182 61.574 67.6482 61.484 67.8162 61.304C67.9842 61.124 68.0682 60.862 68.0682 60.518V58.712H68.6142ZM70.934 58.652C71.334 58.652 71.658 58.774 71.906 59.018C72.154 59.258 72.278 59.606 72.278 60.062V62H71.738V60.14C71.738 59.812 71.656 59.562 71.492 59.39C71.328 59.214 71.104 59.126 70.82 59.126C70.532 59.126 70.302 59.216 70.13 59.396C69.962 59.576 69.878 59.838 69.878 60.182V62H69.332V58.712H69.878V59.18C69.986 59.012 70.132 58.882 70.316 58.79C70.504 58.698 70.71 58.652 70.934 58.652ZM74.3217 58.658C74.6057 58.658 74.8537 58.72 75.0657 58.844C75.2817 58.968 75.4417 59.124 75.5457 59.312V58.712H76.0977V62.072C76.0977 62.372 76.0337 62.638 75.9057 62.87C75.7777 63.106 75.5937 63.29 75.3537 63.422C75.1177 63.554 74.8417 63.62 74.5257 63.62C74.0937 63.62 73.7337 63.518 73.4457 63.314C73.1577 63.11 72.9877 62.832 72.9357 62.48H73.4757C73.5357 62.68 73.6597 62.84 73.8477 62.96C74.0357 63.084 74.2617 63.146 74.5257 63.146C74.8257 63.146 75.0697 63.052 75.2577 62.864C75.4497 62.676 75.5457 62.412 75.5457 62.072V61.382C75.4377 61.574 75.2777 61.734 75.0657 61.862C74.8537 61.99 74.6057 62.054 74.3217 62.054C74.0297 62.054 73.7637 61.982 73.5237 61.838C73.2877 61.694 73.1017 61.492 72.9657 61.232C72.8297 60.972 72.7617 60.676 72.7617 60.344C72.7617 60.008 72.8297 59.714 72.9657 59.462C73.1017 59.206 73.2877 59.008 73.5237 58.868C73.7637 58.728 74.0297 58.658 74.3217 58.658ZM75.5457 60.35C75.5457 60.102 75.4957 59.886 75.3957 59.702C75.2957 59.518 75.1597 59.378 74.9877 59.282C74.8197 59.182 74.6337 59.132 74.4297 59.132C74.2257 59.132 74.0397 59.18 73.8717 59.276C73.7037 59.372 73.5697 59.512 73.4697 59.696C73.3697 59.88 73.3197 60.096 73.3197 60.344C73.3197 60.596 73.3697 60.816 73.4697 61.004C73.5697 61.188 73.7037 61.33 73.8717 61.43C74.0397 61.526 74.2257 61.574 74.4297 61.574C74.6337 61.574 74.8197 61.526 74.9877 61.43C75.1597 61.33 75.2957 61.188 75.3957 61.004C75.4957 60.816 75.5457 60.598 75.5457 60.35ZM79.6457 62.054C79.3377 62.054 79.0577 61.984 78.8057 61.844C78.5577 61.704 78.3617 61.506 78.2177 61.25C78.0777 60.99 78.0077 60.69 78.0077 60.35C78.0077 60.014 78.0797 59.718 78.2237 59.462C78.3717 59.202 78.5717 59.004 78.8237 58.868C79.0757 58.728 79.3577 58.658 79.6697 58.658C79.9817 58.658 80.2637 58.728 80.5157 58.868C80.7677 59.004 80.9657 59.2 81.1097 59.456C81.2577 59.712 81.3317 60.01 81.3317 60.35C81.3317 60.69 81.2557 60.99 81.1037 61.25C80.9557 61.506 80.7537 61.704 80.4977 61.844C80.2417 61.984 79.9577 62.054 79.6457 62.054ZM79.6457 61.574C79.8417 61.574 80.0257 61.528 80.1977 61.436C80.3697 61.344 80.5077 61.206 80.6117 61.022C80.7197 60.838 80.7737 60.614 80.7737 60.35C80.7737 60.086 80.7217 59.862 80.6177 59.678C80.5137 59.494 80.3777 59.358 80.2097 59.27C80.0417 59.178 79.8597 59.132 79.6637 59.132C79.4637 59.132 79.2797 59.178 79.1117 59.27C78.9477 59.358 78.8157 59.494 78.7157 59.678C78.6157 59.862 78.5657 60.086 78.5657 60.35C78.5657 60.618 78.6137 60.844 78.7097 61.028C78.8097 61.212 78.9417 61.35 79.1057 61.442C79.2697 61.53 79.4497 61.574 79.6457 61.574ZM83.4775 58.652C83.7255 58.652 83.9495 58.706 84.1495 58.814C84.3495 58.918 84.5055 59.076 84.6175 59.288C84.7335 59.5 84.7915 59.758 84.7915 60.062V62H84.2515V60.14C84.2515 59.812 84.1695 59.562 84.0055 59.39C83.8415 59.214 83.6175 59.126 83.3335 59.126C83.0455 59.126 82.8155 59.216 82.6435 59.396C82.4755 59.576 82.3915 59.838 82.3915 60.182V62H81.8455V57.56H82.3915V59.18C82.4995 59.012 82.6475 58.882 82.8355 58.79C83.0275 58.698 83.2415 58.652 83.4775 58.652ZM87.0812 58.652C87.4812 58.652 87.8052 58.774 88.0532 59.018C88.3012 59.258 88.4252 59.606 88.4252 60.062V62H87.8852V60.14C87.8852 59.812 87.8032 59.562 87.6392 59.39C87.4752 59.214 87.2512 59.126 86.9672 59.126C86.6792 59.126 86.4492 59.216 86.2772 59.396C86.1092 59.576 86.0252 59.838 86.0252 60.182V62H85.4792V58.712H86.0252V59.18C86.1332 59.012 86.2792 58.882 86.4632 58.79C86.6512 58.698 86.8572 58.652 87.0812 58.652ZM92.113 60.23C92.113 60.334 92.107 60.444 92.095 60.56H89.467C89.487 60.884 89.597 61.138 89.797 61.322C90.001 61.502 90.247 61.592 90.535 61.592C90.771 61.592 90.967 61.538 91.123 61.43C91.283 61.318 91.395 61.17 91.459 60.986H92.047C91.959 61.302 91.783 61.56 91.519 61.76C91.255 61.956 90.927 62.054 90.535 62.054C90.223 62.054 89.943 61.984 89.695 61.844C89.451 61.704 89.259 61.506 89.119 61.25C88.979 60.99 88.909 60.69 88.909 60.35C88.909 60.01 88.977 59.712 89.113 59.456C89.249 59.2 89.439 59.004 89.683 58.868C89.931 58.728 90.215 58.658 90.535 58.658C90.847 58.658 91.123 58.726 91.363 58.862C91.603 58.998 91.787 59.186 91.915 59.426C92.047 59.662 92.113 59.93 92.113 60.23ZM91.549 60.116C91.549 59.908 91.503 59.73 91.411 59.582C91.319 59.43 91.193 59.316 91.033 59.24C90.877 59.16 90.703 59.12 90.511 59.12C90.235 59.12 89.999 59.208 89.803 59.384C89.611 59.56 89.501 59.804 89.473 60.116H91.549ZM96.293 62L94.571 60.092V62H94.025V57.818H94.571V59.756L96.299 57.818H96.989L95.093 59.912L97.007 62H96.293ZM98.8466 62.054C98.5386 62.054 98.2586 61.984 98.0066 61.844C97.7586 61.704 97.5626 61.506 97.4186 61.25C97.2786 60.99 97.2086 60.69 97.2086 60.35C97.2086 60.014 97.2806 59.718 97.4246 59.462C97.5726 59.202 97.7726 59.004 98.0246 58.868C98.2766 58.728 98.5586 58.658 98.8706 58.658C99.1826 58.658 99.4646 58.728 99.7166 58.868C99.9686 59.004 100.167 59.2 100.311 59.456C100.459 59.712 100.533 60.01 100.533 60.35C100.533 60.69 100.457 60.99 100.305 61.25C100.157 61.506 99.9546 61.704 99.6986 61.844C99.4426 61.984 99.1586 62.054 98.8466 62.054ZM98.8466 61.574C99.0426 61.574 99.2266 61.528 99.3986 61.436C99.5706 61.344 99.7086 61.206 99.8126 61.022C99.9206 60.838 99.9746 60.614 99.9746 60.35C99.9746 60.086 99.9226 59.862 99.8186 59.678C99.7146 59.494 99.5786 59.358 99.4106 59.27C99.2426 59.178 99.0606 59.132 98.8646 59.132C98.6646 59.132 98.4806 59.178 98.3126 59.27C98.1486 59.358 98.0166 59.494 97.9166 59.678C97.8166 59.862 97.7666 60.086 97.7666 60.35C97.7666 60.618 97.8146 60.844 97.9106 61.028C98.0106 61.212 98.1426 61.35 98.3066 61.442C98.4706 61.53 98.6506 61.574 98.8466 61.574ZM105 58.652C105.256 58.652 105.484 58.706 105.684 58.814C105.884 58.918 106.042 59.076 106.158 59.288C106.274 59.5 106.332 59.758 106.332 60.062V62H105.792V60.14C105.792 59.812 105.71 59.562 105.546 59.39C105.386 59.214 105.168 59.126 104.892 59.126C104.608 59.126 104.382 59.218 104.214 59.402C104.046 59.582 103.962 59.844 103.962 60.188V62H103.422V60.14C103.422 59.812 103.34 59.562 103.176 59.39C103.016 59.214 102.798 59.126 102.522 59.126C102.238 59.126 102.012 59.218 101.844 59.402C101.676 59.582 101.592 59.844 101.592 60.188V62H101.046V58.712H101.592V59.186C101.7 59.014 101.844 58.882 102.024 58.79C102.208 58.698 102.41 58.652 102.63 58.652C102.906 58.652 103.15 58.714 103.362 58.838C103.574 58.962 103.732 59.144 103.836 59.384C103.928 59.152 104.08 58.972 104.292 58.844C104.504 58.716 104.74 58.652 105 58.652ZM107.57 59.318C107.678 59.13 107.838 58.974 108.05 58.85C108.266 58.722 108.516 58.658 108.8 58.658C109.092 58.658 109.356 58.728 109.592 58.868C109.832 59.008 110.02 59.206 110.156 59.462C110.292 59.714 110.36 60.008 110.36 60.344C110.36 60.676 110.292 60.972 110.156 61.232C110.02 61.492 109.832 61.694 109.592 61.838C109.356 61.982 109.092 62.054 108.8 62.054C108.52 62.054 108.272 61.992 108.056 61.868C107.844 61.74 107.682 61.582 107.57 61.394V63.56H107.024V58.712H107.57V59.318ZM109.802 60.344C109.802 60.096 109.752 59.88 109.652 59.696C109.552 59.512 109.416 59.372 109.244 59.276C109.076 59.18 108.89 59.132 108.686 59.132C108.486 59.132 108.3 59.182 108.128 59.282C107.96 59.378 107.824 59.52 107.72 59.708C107.62 59.892 107.57 60.106 107.57 60.35C107.57 60.598 107.62 60.816 107.72 61.004C107.824 61.188 107.96 61.33 108.128 61.43C108.3 61.526 108.486 61.574 108.686 61.574C108.89 61.574 109.076 61.526 109.244 61.43C109.416 61.33 109.552 61.188 109.652 61.004C109.752 60.816 109.802 60.596 109.802 60.344ZM111.42 59.246C111.516 59.058 111.652 58.912 111.828 58.808C112.008 58.704 112.226 58.652 112.482 58.652V59.216H112.338C111.726 59.216 111.42 59.548 111.42 60.212V62H110.874V58.712H111.42V59.246ZM114.343 62.054C114.035 62.054 113.755 61.984 113.503 61.844C113.255 61.704 113.059 61.506 112.915 61.25C112.775 60.99 112.705 60.69 112.705 60.35C112.705 60.014 112.777 59.718 112.921 59.462C113.069 59.202 113.269 59.004 113.521 58.868C113.773 58.728 114.055 58.658 114.367 58.658C114.679 58.658 114.961 58.728 115.213 58.868C115.465 59.004 115.663 59.2 115.807 59.456C115.955 59.712 116.029 60.01 116.029 60.35C116.029 60.69 115.953 60.99 115.801 61.25C115.653 61.506 115.451 61.704 115.195 61.844C114.939 61.984 114.655 62.054 114.343 62.054ZM114.343 61.574C114.539 61.574 114.723 61.528 114.895 61.436C115.067 61.344 115.205 61.206 115.309 61.022C115.417 60.838 115.471 60.614 115.471 60.35C115.471 60.086 115.419 59.862 115.315 59.678C115.211 59.494 115.075 59.358 114.907 59.27C114.739 59.178 114.557 59.132 114.361 59.132C114.161 59.132 113.977 59.178 113.809 59.27C113.645 59.358 113.513 59.494 113.413 59.678C113.313 59.862 113.263 60.086 113.263 60.35C113.263 60.618 113.311 60.844 113.407 61.028C113.507 61.212 113.639 61.35 113.803 61.442C113.967 61.53 114.147 61.574 114.343 61.574ZM120.496 58.652C120.752 58.652 120.98 58.706 121.18 58.814C121.38 58.918 121.538 59.076 121.654 59.288C121.77 59.5 121.828 59.758 121.828 60.062V62H121.288V60.14C121.288 59.812 121.206 59.562 121.042 59.39C120.882 59.214 120.664 59.126 120.388 59.126C120.104 59.126 119.878 59.218 119.71 59.402C119.542 59.582 119.458 59.844 119.458 60.188V62H118.918V60.14C118.918 59.812 118.836 59.562 118.672 59.39C118.512 59.214 118.294 59.126 118.018 59.126C117.734 59.126 117.508 59.218 117.34 59.402C117.172 59.582 117.088 59.844 117.088 60.188V62H116.542V58.712H117.088V59.186C117.196 59.014 117.34 58.882 117.52 58.79C117.704 58.698 117.906 58.652 118.126 58.652C118.402 58.652 118.646 58.714 118.858 58.838C119.07 58.962 119.228 59.144 119.332 59.384C119.424 59.152 119.576 58.972 119.788 58.844C120 58.716 120.236 58.652 120.496 58.652ZM122.802 58.178C122.698 58.178 122.61 58.142 122.538 58.07C122.466 57.998 122.43 57.91 122.43 57.806C122.43 57.702 122.466 57.614 122.538 57.542C122.61 57.47 122.698 57.434 122.802 57.434C122.902 57.434 122.986 57.47 123.054 57.542C123.126 57.614 123.162 57.702 123.162 57.806C123.162 57.91 123.126 57.998 123.054 58.07C122.986 58.142 122.902 58.178 122.802 58.178ZM123.066 58.712V62H122.52V58.712H123.066ZM124.956 62.054C124.704 62.054 124.478 62.012 124.278 61.928C124.078 61.84 123.92 61.72 123.804 61.568C123.688 61.412 123.624 61.234 123.612 61.034H124.176C124.192 61.198 124.268 61.332 124.404 61.436C124.544 61.54 124.726 61.592 124.95 61.592C125.158 61.592 125.322 61.546 125.442 61.454C125.562 61.362 125.622 61.246 125.622 61.106C125.622 60.962 125.558 60.856 125.43 60.788C125.302 60.716 125.104 60.646 124.836 60.578C124.592 60.514 124.392 60.45 124.236 60.386C124.084 60.318 123.952 60.22 123.84 60.092C123.732 59.96 123.678 59.788 123.678 59.576C123.678 59.408 123.728 59.254 123.828 59.114C123.928 58.974 124.07 58.864 124.254 58.784C124.438 58.7 124.648 58.658 124.884 58.658C125.248 58.658 125.542 58.75 125.766 58.934C125.99 59.118 126.11 59.37 126.126 59.69H125.58C125.568 59.518 125.498 59.38 125.37 59.276C125.246 59.172 125.078 59.12 124.866 59.12C124.67 59.12 124.514 59.162 124.398 59.246C124.282 59.33 124.224 59.44 124.224 59.576C124.224 59.684 124.258 59.774 124.326 59.846C124.398 59.914 124.486 59.97 124.59 60.014C124.698 60.054 124.846 60.1 125.034 60.152C125.27 60.216 125.462 60.28 125.61 60.344C125.758 60.404 125.884 60.496 125.988 60.62C126.096 60.744 126.152 60.906 126.156 61.106C126.156 61.286 126.106 61.448 126.006 61.592C125.906 61.736 125.764 61.85 125.58 61.934C125.4 62.014 125.192 62.054 124.956 62.054ZM127.887 62.054C127.635 62.054 127.409 62.012 127.209 61.928C127.009 61.84 126.851 61.72 126.735 61.568C126.619 61.412 126.555 61.234 126.543 61.034H127.107C127.123 61.198 127.199 61.332 127.335 61.436C127.475 61.54 127.657 61.592 127.881 61.592C128.089 61.592 128.253 61.546 128.373 61.454C128.493 61.362 128.553 61.246 128.553 61.106C128.553 60.962 128.489 60.856 128.361 60.788C128.233 60.716 128.035 60.646 127.767 60.578C127.523 60.514 127.323 60.45 127.167 60.386C127.015 60.318 126.883 60.22 126.771 60.092C126.663 59.96 126.609 59.788 126.609 59.576C126.609 59.408 126.659 59.254 126.759 59.114C126.859 58.974 127.001 58.864 127.185 58.784C127.369 58.7 127.579 58.658 127.815 58.658C128.179 58.658 128.473 58.75 128.697 58.934C128.921 59.118 129.041 59.37 129.057 59.69H128.511C128.499 59.518 128.429 59.38 128.301 59.276C128.177 59.172 128.009 59.12 127.797 59.12C127.601 59.12 127.445 59.162 127.329 59.246C127.213 59.33 127.155 59.44 127.155 59.576C127.155 59.684 127.189 59.774 127.257 59.846C127.329 59.914 127.417 59.97 127.521 60.014C127.629 60.054 127.777 60.1 127.965 60.152C128.201 60.216 128.393 60.28 128.541 60.344C128.689 60.404 128.815 60.496 128.919 60.62C129.027 60.744 129.083 60.906 129.087 61.106C129.087 61.286 129.037 61.448 128.937 61.592C128.837 61.736 128.695 61.85 128.511 61.934C128.331 62.014 128.123 62.054 127.887 62.054ZM132.653 60.23C132.653 60.334 132.647 60.444 132.635 60.56H130.007C130.027 60.884 130.137 61.138 130.337 61.322C130.541 61.502 130.787 61.592 131.075 61.592C131.311 61.592 131.507 61.538 131.663 61.43C131.823 61.318 131.935 61.17 131.999 60.986H132.587C132.499 61.302 132.323 61.56 132.059 61.76C131.795 61.956 131.467 62.054 131.075 62.054C130.763 62.054 130.483 61.984 130.235 61.844C129.991 61.704 129.799 61.506 129.659 61.25C129.519 60.99 129.449 60.69 129.449 60.35C129.449 60.01 129.517 59.712 129.653 59.456C129.789 59.2 129.979 59.004 130.223 58.868C130.471 58.728 130.755 58.658 131.075 58.658C131.387 58.658 131.663 58.726 131.903 58.862C132.143 58.998 132.327 59.186 132.455 59.426C132.587 59.662 132.653 59.93 132.653 60.23ZM132.089 60.116C132.089 59.908 132.043 59.73 131.951 59.582C131.859 59.43 131.733 59.316 131.573 59.24C131.417 59.16 131.243 59.12 131.051 59.12C130.775 59.12 130.539 59.208 130.343 59.384C130.151 59.56 130.041 59.804 130.013 60.116H132.089ZM135.111 59.324C135.223 59.128 135.387 58.968 135.603 58.844C135.819 58.72 136.065 58.658 136.341 58.658C136.637 58.658 136.903 58.728 137.139 58.868C137.375 59.008 137.561 59.206 137.697 59.462C137.833 59.714 137.901 60.008 137.901 60.344C137.901 60.676 137.833 60.972 137.697 61.232C137.561 61.492 137.373 61.694 137.133 61.838C136.897 61.982 136.633 62.054 136.341 62.054C136.057 62.054 135.807 61.992 135.591 61.868C135.379 61.744 135.219 61.586 135.111 61.394V62H134.565V57.56H135.111V59.324ZM137.343 60.344C137.343 60.096 137.293 59.88 137.193 59.696C137.093 59.512 136.957 59.372 136.785 59.276C136.617 59.18 136.431 59.132 136.227 59.132C136.027 59.132 135.841 59.182 135.669 59.282C135.501 59.378 135.365 59.52 135.261 59.708C135.161 59.892 135.111 60.106 135.111 60.35C135.111 60.598 135.161 60.816 135.261 61.004C135.365 61.188 135.501 61.33 135.669 61.43C135.841 61.526 136.027 61.574 136.227 61.574C136.431 61.574 136.617 61.526 136.785 61.43C136.957 61.33 137.093 61.188 137.193 61.004C137.293 60.816 137.343 60.596 137.343 60.344ZM141.416 60.23C141.416 60.334 141.41 60.444 141.398 60.56H138.77C138.79 60.884 138.9 61.138 139.1 61.322C139.304 61.502 139.55 61.592 139.838 61.592C140.074 61.592 140.27 61.538 140.426 61.43C140.586 61.318 140.698 61.17 140.762 60.986H141.35C141.262 61.302 141.086 61.56 140.822 61.76C140.558 61.956 140.23 62.054 139.838 62.054C139.526 62.054 139.246 61.984 138.998 61.844C138.754 61.704 138.562 61.506 138.422 61.25C138.282 60.99 138.212 60.69 138.212 60.35C138.212 60.01 138.28 59.712 138.416 59.456C138.552 59.2 138.742 59.004 138.986 58.868C139.234 58.728 139.518 58.658 139.838 58.658C140.15 58.658 140.426 58.726 140.666 58.862C140.906 58.998 141.09 59.186 141.218 59.426C141.35 59.662 141.416 59.93 141.416 60.23ZM140.852 60.116C140.852 59.908 140.806 59.73 140.714 59.582C140.622 59.43 140.496 59.316 140.336 59.24C140.18 59.16 140.006 59.12 139.814 59.12C139.538 59.12 139.302 59.208 139.106 59.384C138.914 59.56 138.804 59.804 138.776 60.116H140.852ZM142.215 58.178C142.111 58.178 142.023 58.142 141.951 58.07C141.879 57.998 141.843 57.91 141.843 57.806C141.843 57.702 141.879 57.614 141.951 57.542C142.023 57.47 142.111 57.434 142.215 57.434C142.315 57.434 142.399 57.47 142.467 57.542C142.539 57.614 142.575 57.702 142.575 57.806C142.575 57.91 142.539 57.998 142.467 58.07C142.399 58.142 142.315 58.178 142.215 58.178ZM142.479 58.712V62H141.933V58.712H142.479ZM144.396 60.344C144.396 60.008 144.464 59.714 144.6 59.462C144.736 59.206 144.922 59.008 145.158 58.868C145.398 58.728 145.666 58.658 145.962 58.658C146.218 58.658 146.456 58.718 146.676 58.838C146.896 58.954 147.064 59.108 147.18 59.3V57.56H147.732V62H147.18V61.382C147.072 61.578 146.912 61.74 146.7 61.868C146.488 61.992 146.24 62.054 145.956 62.054C145.664 62.054 145.398 61.982 145.158 61.838C144.922 61.694 144.736 61.492 144.6 61.232C144.464 60.972 144.396 60.676 144.396 60.344ZM147.18 60.35C147.18 60.102 147.13 59.886 147.03 59.702C146.93 59.518 146.794 59.378 146.622 59.282C146.454 59.182 146.268 59.132 146.064 59.132C145.86 59.132 145.674 59.18 145.506 59.276C145.338 59.372 145.204 59.512 145.104 59.696C145.004 59.88 144.954 60.096 144.954 60.344C144.954 60.596 145.004 60.816 145.104 61.004C145.204 61.188 145.338 61.33 145.506 61.43C145.674 61.526 145.86 61.574 146.064 61.574C146.268 61.574 146.454 61.526 146.622 61.43C146.794 61.33 146.93 61.188 147.03 61.004C147.13 60.816 147.18 60.598 147.18 60.35ZM151.451 60.23C151.451 60.334 151.445 60.444 151.433 60.56H148.805C148.825 60.884 148.935 61.138 149.135 61.322C149.339 61.502 149.585 61.592 149.873 61.592C150.109 61.592 150.305 61.538 150.461 61.43C150.621 61.318 150.733 61.17 150.797 60.986H151.385C151.297 61.302 151.121 61.56 150.857 61.76C150.593 61.956 150.265 62.054 149.873 62.054C149.561 62.054 149.281 61.984 149.033 61.844C148.789 61.704 148.597 61.506 148.457 61.25C148.317 60.99 148.247 60.69 148.247 60.35C148.247 60.01 148.315 59.712 148.451 59.456C148.587 59.2 148.777 59.004 149.021 58.868C149.269 58.728 149.553 58.658 149.873 58.658C150.185 58.658 150.461 58.726 150.701 58.862C150.941 58.998 151.125 59.186 151.253 59.426C151.385 59.662 151.451 59.93 151.451 60.23ZM150.887 60.116C150.887 59.908 150.841 59.73 150.749 59.582C150.657 59.43 150.531 59.316 150.371 59.24C150.215 59.16 150.041 59.12 149.849 59.12C149.573 59.12 149.337 59.208 149.141 59.384C148.949 59.56 148.839 59.804 148.811 60.116H150.887ZM152.514 59.246C152.61 59.058 152.746 58.912 152.922 58.808C153.102 58.704 153.32 58.652 153.576 58.652V59.216H153.432C152.82 59.216 152.514 59.548 152.514 60.212V62H151.968V58.712H152.514V59.246ZM158.751 62.792L157.917 61.958C157.713 62.014 157.505 62.042 157.293 62.042C156.905 62.042 156.551 61.952 156.231 61.772C155.911 61.588 155.657 61.334 155.469 61.01C155.285 60.682 155.193 60.314 155.193 59.906C155.193 59.498 155.285 59.132 155.469 58.808C155.657 58.48 155.911 58.226 156.231 58.046C156.551 57.862 156.905 57.77 157.293 57.77C157.685 57.77 158.041 57.862 158.361 58.046C158.681 58.226 158.933 58.478 159.117 58.802C159.301 59.126 159.393 59.494 159.393 59.906C159.393 60.306 159.305 60.666 159.129 60.986C158.953 61.306 158.711 61.558 158.403 61.742L159.459 62.792H158.751ZM155.751 59.906C155.751 60.238 155.817 60.53 155.949 60.782C156.085 61.034 156.269 61.228 156.501 61.364C156.737 61.5 157.001 61.568 157.293 61.568C157.585 61.568 157.847 61.5 158.079 61.364C158.315 61.228 158.499 61.034 158.631 60.782C158.767 60.53 158.835 60.238 158.835 59.906C158.835 59.57 158.767 59.278 158.631 59.03C158.499 58.778 158.317 58.584 158.085 58.448C157.853 58.312 157.589 58.244 157.293 58.244C156.997 58.244 156.733 58.312 156.501 58.448C156.269 58.584 156.085 58.778 155.949 59.03C155.817 59.278 155.751 59.57 155.751 59.906ZM162.838 58.712V62H162.292V61.514C162.188 61.682 162.042 61.814 161.854 61.91C161.67 62.002 161.466 62.048 161.242 62.048C160.986 62.048 160.756 61.996 160.552 61.892C160.348 61.784 160.186 61.624 160.066 61.412C159.95 61.2 159.892 60.942 159.892 60.638V58.712H160.432V60.566C160.432 60.89 160.514 61.14 160.678 61.316C160.842 61.488 161.066 61.574 161.35 61.574C161.642 61.574 161.872 61.484 162.04 61.304C162.208 61.124 162.292 60.862 162.292 60.518V58.712H162.838ZM163.351 60.344C163.351 60.008 163.419 59.714 163.555 59.462C163.691 59.206 163.877 59.008 164.113 58.868C164.353 58.728 164.619 58.658 164.911 58.658C165.199 58.658 165.449 58.72 165.661 58.844C165.873 58.968 166.031 59.124 166.135 59.312V58.712H166.687V62H166.135V61.388C166.027 61.58 165.865 61.74 165.649 61.868C165.437 61.992 165.189 62.054 164.905 62.054C164.613 62.054 164.349 61.982 164.113 61.838C163.877 61.694 163.691 61.492 163.555 61.232C163.419 60.972 163.351 60.676 163.351 60.344ZM166.135 60.35C166.135 60.102 166.085 59.886 165.985 59.702C165.885 59.518 165.749 59.378 165.577 59.282C165.409 59.182 165.223 59.132 165.019 59.132C164.815 59.132 164.629 59.18 164.461 59.276C164.293 59.372 164.159 59.512 164.059 59.696C163.959 59.88 163.909 60.096 163.909 60.344C163.909 60.596 163.959 60.816 164.059 61.004C164.159 61.188 164.293 61.33 164.461 61.43C164.629 61.526 164.815 61.574 165.019 61.574C165.223 61.574 165.409 61.526 165.577 61.43C165.749 61.33 165.885 61.188 165.985 61.004C166.085 60.816 166.135 60.598 166.135 60.35ZM167.952 57.56V62H167.406V57.56H167.952ZM168.96 58.178C168.856 58.178 168.768 58.142 168.696 58.07C168.624 57.998 168.588 57.91 168.588 57.806C168.588 57.702 168.624 57.614 168.696 57.542C168.768 57.47 168.856 57.434 168.96 57.434C169.06 57.434 169.144 57.47 169.212 57.542C169.284 57.614 169.32 57.702 169.32 57.806C169.32 57.91 169.284 57.998 169.212 58.07C169.144 58.142 169.06 58.178 168.96 58.178ZM169.224 58.712V62H168.678V58.712H169.224ZM170.617 59.162V61.1C170.617 61.26 170.651 61.374 170.719 61.442C170.787 61.506 170.905 61.538 171.073 61.538H171.475V62H170.983C170.679 62 170.451 61.93 170.299 61.79C170.147 61.65 170.071 61.42 170.071 61.1V59.162H169.645V58.712H170.071V57.884H170.617V58.712H171.475V59.162H170.617ZM171.728 60.344C171.728 60.008 171.796 59.714 171.932 59.462C172.068 59.206 172.254 59.008 172.49 58.868C172.73 58.728 172.996 58.658 173.288 58.658C173.576 58.658 173.826 58.72 174.038 58.844C174.25 58.968 174.408 59.124 174.512 59.312V58.712H175.064V62H174.512V61.388C174.404 61.58 174.242 61.74 174.026 61.868C173.814 61.992 173.566 62.054 173.282 62.054C172.99 62.054 172.726 61.982 172.49 61.838C172.254 61.694 172.068 61.492 171.932 61.232C171.796 60.972 171.728 60.676 171.728 60.344ZM174.512 60.35C174.512 60.102 174.462 59.886 174.362 59.702C174.262 59.518 174.126 59.378 173.954 59.282C173.786 59.182 173.6 59.132 173.396 59.132C173.192 59.132 173.006 59.18 172.838 59.276C172.67 59.372 172.536 59.512 172.436 59.696C172.336 59.88 172.286 60.096 172.286 60.344C172.286 60.596 172.336 60.816 172.436 61.004C172.536 61.188 172.67 61.33 172.838 61.43C173.006 61.526 173.192 61.574 173.396 61.574C173.6 61.574 173.786 61.526 173.954 61.43C174.126 61.33 174.262 61.188 174.362 61.004C174.462 60.816 174.512 60.598 174.512 60.35ZM173.018 58.268C172.93 58.268 172.854 58.238 172.79 58.178C172.73 58.118 172.7 58.044 172.7 57.956C172.7 57.868 172.73 57.794 172.79 57.734C172.854 57.67 172.93 57.638 173.018 57.638C173.102 57.638 173.174 57.67 173.234 57.734C173.298 57.794 173.33 57.868 173.33 57.956C173.33 58.044 173.298 58.118 173.234 58.178C173.174 58.238 173.102 58.268 173.018 58.268ZM173.99 58.268C173.902 58.268 173.828 58.238 173.768 58.178C173.708 58.118 173.678 58.044 173.678 57.956C173.678 57.868 173.708 57.794 173.768 57.734C173.828 57.67 173.902 57.638 173.99 57.638C174.078 57.638 174.152 57.67 174.212 57.734C174.276 57.794 174.308 57.868 174.308 57.956C174.308 58.044 174.276 58.118 174.212 58.178C174.152 58.238 174.078 58.268 173.99 58.268ZM176.449 59.162V61.1C176.449 61.26 176.483 61.374 176.551 61.442C176.619 61.506 176.737 61.538 176.905 61.538H177.307V62H176.815C176.511 62 176.283 61.93 176.131 61.79C175.979 61.65 175.903 61.42 175.903 61.1V59.162H175.477V58.712H175.903V57.884H176.449V58.712H177.307V59.162H176.449Z" fill="white"/>
<path d="M51.5139 231.661V229.744H51.3467C51.2501 230.067 51.1091 230.359 50.9262 230.617C50.7408 230.875 50.5188 231.095 50.2524 231.277C49.9886 231.458 49.6935 231.598 49.3697 231.695C49.0458 231.792 48.6985 231.84 48.3302 231.84C47.7217 231.84 47.1576 231.716 46.6352 231.469C46.1155 231.222 45.6663 230.882 45.2902 230.449C44.9141 230.015 44.6164 229.502 44.4022 228.908C44.1854 228.314 44.0784 227.669 44.0784 226.973C44.0784 226.276 44.1854 225.618 44.4022 225.024C44.619 224.43 44.9219 223.917 45.3163 223.489C45.7081 223.06 46.1729 222.726 46.711 222.487C47.2464 222.247 47.8392 222.129 48.4895 222.129C49.0249 222.129 49.5316 222.219 50.0095 222.397C50.4849 222.576 50.9106 222.826 51.284 223.149C51.6575 223.473 51.9631 223.854 52.2033 224.296C52.4436 224.738 52.5951 225.221 52.6604 225.747H51.3754C51.2945 225.366 51.1639 225.032 50.9837 224.74C50.8035 224.448 50.5867 224.201 50.336 223.993C50.0827 223.786 49.798 223.631 49.482 223.525C49.166 223.42 48.8317 223.368 48.4791 223.368C48.0299 223.368 47.6146 223.457 47.2359 223.633C46.8546 223.812 46.5281 224.059 46.2513 224.38C45.9745 224.701 45.7577 225.079 45.6036 225.521C45.4469 225.963 45.3685 226.441 45.3685 226.959C45.3685 227.533 45.4547 228.051 45.6271 228.513C45.7995 228.974 46.0319 229.368 46.3244 229.697C46.6169 230.025 46.9565 230.278 47.3404 230.454C47.7243 230.633 48.1291 230.722 48.5548 230.722C49.2025 230.722 49.7875 230.551 50.302 230.212C50.8192 229.873 51.224 229.392 51.5217 228.768V227.627H48.0377V226.607H52.7466V231.656H51.5217L51.5139 231.661Z" fill="white"/>
<path d="M76.679 225.3C76.679 225.729 76.5981 226.123 76.4388 226.483C76.2795 226.844 76.0549 227.154 75.765 227.412C75.4777 227.669 75.1303 227.874 74.7255 228.024C74.3207 228.174 73.8741 228.253 73.3857 228.261V228.432H73.5058C73.6913 228.432 73.8532 228.445 73.9916 228.474C74.1326 228.503 74.2789 228.571 74.4304 228.679C74.5819 228.789 74.7595 228.95 74.9579 229.165C75.1564 229.381 75.415 229.67 75.7258 230.033L77.0473 231.598V231.658H75.4359L72.6727 228.261H71.0143V231.658H69.7763V222.313H73.31C73.8062 222.313 74.2606 222.387 74.6733 222.531C75.0859 222.676 75.4411 222.881 75.7362 223.144C76.0314 223.407 76.2638 223.723 76.4283 224.091C76.5929 224.459 76.6738 224.861 76.6738 225.298L76.679 225.3ZM75.3915 225.313C75.3915 225.04 75.3445 224.79 75.2478 224.567C75.1512 224.343 75.0128 224.154 74.8326 223.996C74.6524 223.838 74.4408 223.715 74.1953 223.625C73.9498 223.536 73.6756 223.491 73.3726 223.491H71.0169V227.083H73.3726C73.6782 227.083 73.9524 227.041 74.2006 226.954C74.4487 226.87 74.6602 226.749 74.8378 226.591C75.0128 226.434 75.1512 226.247 75.2452 226.034C75.3419 225.821 75.3889 225.579 75.3889 225.311L75.3915 225.313Z" fill="white"/>
<path d="M93.5034 226.988C93.5034 226.291 93.6157 225.65 93.8404 225.058C94.065 224.467 94.3757 223.957 94.7779 223.523C95.1775 223.089 95.6503 222.75 96.1961 222.502C96.7419 222.255 97.3322 222.132 97.9747 222.132C98.6171 222.132 99.2178 222.253 99.7585 222.495C100.299 222.736 100.769 223.073 101.164 223.502C101.561 223.93 101.869 224.443 102.088 225.037C102.307 225.631 102.417 226.281 102.417 226.986C102.417 227.69 102.307 228.34 102.088 228.934C101.869 229.528 101.558 230.041 101.164 230.47C100.767 230.898 100.299 231.235 99.7585 231.477C99.2178 231.719 98.6224 231.84 97.9747 231.84C97.327 231.84 96.7419 231.716 96.1961 231.469C95.6503 231.222 95.1775 230.882 94.7779 230.449C94.3784 230.015 94.065 229.505 93.8404 228.913C93.6157 228.321 93.5034 227.68 93.5034 226.983V226.988ZM94.791 226.988C94.791 227.506 94.872 227.987 95.0313 228.432C95.1906 228.876 95.4126 229.26 95.692 229.578C95.9715 229.899 96.3084 230.149 96.7002 230.33C97.0919 230.512 97.5176 230.604 97.9747 230.604C98.4317 230.604 98.8783 230.517 99.2675 230.343C99.6566 230.17 99.9883 229.923 100.265 229.602C100.542 229.284 100.756 228.9 100.908 228.455C101.059 228.011 101.135 227.517 101.135 226.975C101.135 226.433 101.059 225.942 100.908 225.5C100.756 225.058 100.542 224.68 100.265 224.364C99.9883 224.049 99.6566 223.804 99.2675 223.63C98.8783 223.457 98.4474 223.37 97.9747 223.37C97.502 223.37 97.0945 223.462 96.708 223.644C96.3189 223.825 95.9819 224.077 95.6999 224.401C95.4152 224.724 95.1932 225.106 95.0339 225.547C94.8746 225.989 94.7936 226.468 94.7936 226.986L94.791 226.988Z" fill="white"/>
<path d="M126.851 227.667C126.851 228.305 126.759 228.884 126.579 229.402C126.399 229.92 126.145 230.359 125.822 230.719C125.498 231.08 125.106 231.356 124.649 231.55C124.192 231.745 123.688 231.842 123.134 231.842C122.58 231.842 122.063 231.742 121.601 231.545C121.139 231.348 120.75 231.066 120.428 230.701C120.107 230.338 119.859 229.899 119.684 229.384C119.506 228.871 119.42 228.298 119.42 227.667V222.316H120.645V227.643C120.645 228.574 120.865 229.299 121.301 229.82C121.737 230.341 122.343 230.604 123.121 230.604C123.505 230.604 123.852 230.535 124.161 230.399C124.469 230.262 124.732 230.065 124.947 229.81C125.163 229.554 125.328 229.244 125.445 228.881C125.56 228.518 125.62 228.106 125.62 227.643V222.316H126.845V227.667H126.851Z" fill="white"/>
<path d="M150.922 225.3C150.922 225.737 150.841 226.136 150.676 226.502C150.512 226.867 150.279 227.178 149.979 227.435C149.678 227.696 149.321 227.895 148.903 228.043C148.485 228.187 148.03 228.261 147.534 228.261H145.252V231.658H144.027V222.313H147.56C148.057 222.313 148.511 222.387 148.924 222.531C149.336 222.676 149.692 222.881 149.987 223.144C150.282 223.407 150.514 223.723 150.676 224.091C150.838 224.459 150.922 224.861 150.922 225.298V225.3ZM149.634 225.313C149.634 225.04 149.587 224.79 149.49 224.567C149.394 224.343 149.255 224.154 149.075 223.996C148.895 223.838 148.683 223.715 148.438 223.625C148.192 223.536 147.918 223.491 147.615 223.491H145.249V227.083H147.615C147.918 227.083 148.192 227.041 148.438 226.954C148.683 226.867 148.895 226.749 149.075 226.591C149.255 226.434 149.394 226.247 149.49 226.034C149.587 225.821 149.634 225.579 149.634 225.311V225.313Z" fill="white"/>
<path d="M33.374 194.386L29.4816 190.933L33.3185 198.6H45.8402V204.852H33.3243L29.4816 212.531L33.374 209.077H48.9349V215.33H29.7242L23.681 209.077L27.626 201.732L23.681 194.386L29.7242 188.134H48.9349V194.386H33.374Z" fill="white"/>
<path d="M59.4197 209.051V188.134H53.4029V209.051L59.4197 215.299H79.6579V209.051H59.4197Z" fill="white"/>
<path d="M92.235 194.386L88.3426 190.933L92.1795 198.6H104.701V204.852H92.1853L88.3426 212.531L92.235 209.077H107.796V215.33H88.5851L82.542 209.077L86.487 201.732L82.542 194.386L88.5851 188.134H107.796V194.386H92.235Z" fill="white"/>
<path d="M140.237 188.134L136.114 209.89L130.341 215.33H120.994L115.222 209.89L111.098 188.134H117.146L120.994 209.074H130.341L134.19 188.134H140.237Z" fill="white"/>
<path d="M165.299 188.134L171.319 194.386L167.096 201.732L171.319 209.077L165.299 215.33H150.142L144.122 209.077L148.345 201.732L144.122 194.386L150.142 188.134H165.299ZM155.123 203.771L149.541 212.946L154.358 209.08H161.079L165.895 212.946L160.313 203.771H155.123ZM161.079 194.385H154.358L149.541 190.517L155.122 199.692H160.314L165.895 190.517L161.079 194.385Z" fill="#0071DA"/>
<rect x="88.3566" y="7.1709" width="17.2247" height="4.23476" rx="2.11738" fill="white"/>
</svg>
