<svg width="540" height="160" viewBox="0 0 540 160" fill="none" xmlns="http://www.w3.org/2000/svg">
<path d="M101.617 158.916V151.918H101.007C100.654 153.098 100.139 154.164 99.4718 155.105C98.7948 156.046 97.9842 156.852 97.0117 157.514C96.0486 158.177 94.9711 158.686 93.7887 159.041C92.6064 159.396 91.3382 159.569 89.9937 159.569C87.772 159.569 85.7124 159.117 83.8054 158.215C81.9079 157.313 80.2678 156.074 78.8947 154.49C77.5217 152.906 76.4346 151.034 75.6528 148.865C74.8613 146.695 74.4704 144.343 74.4704 141.799C74.4704 139.255 74.8613 136.855 75.6528 134.686C76.4442 132.516 77.5503 130.644 78.9901 129.079C80.4204 127.515 82.1176 126.295 84.0819 125.422C86.0366 124.548 88.2011 124.116 90.5754 124.116C92.5301 124.116 94.3799 124.443 96.1249 125.095C97.8603 125.748 99.4145 126.66 100.778 127.841C102.142 129.022 103.257 130.414 104.134 132.027C105.012 133.639 105.565 135.406 105.803 137.326H101.112C100.816 135.934 100.339 134.715 99.6815 133.649C99.0236 132.583 98.2322 131.681 97.3168 130.923C96.3919 130.164 95.3525 129.598 94.1988 129.214C93.045 128.83 91.8245 128.638 90.5373 128.638C88.8972 128.638 87.3811 128.964 85.9985 129.607C84.6063 130.26 83.4144 131.163 82.4037 132.334C81.393 133.505 80.6015 134.887 80.039 136.5C79.4669 138.113 79.1808 139.86 79.1808 141.751C79.1808 143.844 79.4955 145.735 80.1248 147.425C80.7541 149.105 81.6028 150.545 82.6707 151.745C83.7386 152.945 84.9782 153.866 86.3799 154.51C87.7816 155.162 89.2595 155.489 90.8138 155.489C93.1785 155.489 95.3144 154.865 97.1928 153.626C99.0808 152.388 100.559 150.631 101.646 148.356V144.19H88.9258V140.465H106.118V158.897H101.646L101.617 158.916Z" fill="white"/>
<path d="M193.495 135.695C193.495 137.259 193.199 138.699 192.617 140.015C192.036 141.33 191.216 142.462 190.157 143.403C189.108 144.344 187.84 145.093 186.362 145.64C184.884 146.187 183.254 146.475 181.471 146.504V147.128H181.909C182.586 147.128 183.178 147.176 183.683 147.282C184.198 147.387 184.732 147.637 185.285 148.03C185.838 148.434 186.486 149.019 187.211 149.806C187.936 150.594 188.88 151.65 190.014 152.974L194.839 158.686V158.907H188.956L178.868 146.504H172.813V158.907H168.293V124.789H181.194C183.006 124.789 184.665 125.058 186.172 125.586C187.678 126.114 188.975 126.863 190.052 127.823C191.13 128.783 191.979 129.935 192.579 131.279C193.18 132.623 193.476 134.091 193.476 135.685L193.495 135.695ZM188.794 135.743C188.794 134.744 188.622 133.832 188.269 133.016C187.917 132.2 187.411 131.509 186.753 130.933C186.095 130.357 185.323 129.906 184.427 129.579C183.53 129.253 182.529 129.09 181.423 129.09H172.822V142.203H181.423C182.539 142.203 183.54 142.05 184.446 141.733C185.352 141.426 186.124 140.984 186.772 140.408C187.411 139.832 187.917 139.151 188.26 138.373C188.613 137.595 188.784 136.712 188.784 135.733L188.794 135.743Z" fill="white"/>
<path d="M254.92 141.857C254.92 139.313 255.33 136.971 256.15 134.811C256.97 132.651 258.105 130.788 259.573 129.204C261.032 127.62 262.758 126.382 264.751 125.48C266.744 124.577 268.898 124.126 271.244 124.126C273.59 124.126 275.783 124.568 277.757 125.451C279.73 126.334 281.447 127.563 282.887 129.127C284.336 130.692 285.461 132.564 286.262 134.734C287.063 136.903 287.464 139.275 287.464 141.847C287.464 144.42 287.063 146.791 286.262 148.961C285.461 151.131 284.327 153.003 282.887 154.567C281.437 156.132 279.73 157.361 277.757 158.244C275.783 159.127 273.609 159.569 271.244 159.569C268.879 159.569 266.744 159.118 264.751 158.215C262.758 157.313 261.032 156.074 259.573 154.49C258.114 152.906 256.97 151.044 256.15 148.884C255.33 146.724 254.92 144.382 254.92 141.838V141.857ZM259.621 141.857C259.621 143.748 259.916 145.505 260.498 147.127C261.08 148.75 261.89 150.151 262.91 151.313C263.931 152.484 265.161 153.396 266.591 154.059C268.021 154.721 269.575 155.057 271.244 155.057C272.913 155.057 274.543 154.74 275.964 154.107C277.385 153.473 278.596 152.571 279.607 151.399C280.617 150.238 281.399 148.836 281.952 147.214C282.505 145.591 282.782 143.787 282.782 141.809C282.782 139.831 282.505 138.036 281.952 136.423C281.399 134.811 280.617 133.428 279.607 132.276C278.596 131.124 277.385 130.231 275.964 129.598C274.543 128.964 272.97 128.648 271.244 128.648C269.518 128.648 268.031 128.984 266.62 129.646C265.199 130.308 263.969 131.23 262.939 132.411C261.9 133.591 261.089 134.983 260.507 136.596C259.926 138.209 259.63 139.956 259.63 141.847L259.621 141.857Z" fill="white"/>
<path d="M376.67 144.332C376.67 146.665 376.336 148.777 375.678 150.668C375.02 152.559 374.095 154.162 372.913 155.477C371.731 156.792 370.3 157.8 368.632 158.511C366.963 159.221 365.123 159.576 363.101 159.576C361.08 159.576 359.192 159.212 357.504 158.492C355.816 157.772 354.396 156.744 353.223 155.41C352.05 154.085 351.144 152.482 350.505 150.6C349.857 148.729 349.542 146.636 349.542 144.332V124.796H354.014V144.245C354.014 147.644 354.815 150.293 356.407 152.194C358 154.095 360.212 155.055 363.054 155.055C364.455 155.055 365.723 154.805 366.849 154.306C367.974 153.807 368.937 153.087 369.719 152.156C370.51 151.224 371.111 150.092 371.54 148.767C371.959 147.442 372.179 145.935 372.179 144.245V124.796H376.651V144.332H376.67Z" fill="white"/>
<path d="M464.553 135.695C464.553 137.288 464.257 138.747 463.656 140.082C463.056 141.416 462.207 142.549 461.11 143.49C460.014 144.44 458.707 145.17 457.182 145.707C455.656 146.235 453.997 146.504 452.185 146.504H443.852V158.907H439.38V124.789H452.281C454.092 124.789 455.751 125.058 457.258 125.586C458.765 126.114 460.061 126.863 461.139 127.823C462.216 128.783 463.065 129.935 463.656 131.279C464.247 132.623 464.553 134.091 464.553 135.685V135.695ZM459.852 135.743C459.852 134.744 459.68 133.832 459.327 133.016C458.974 132.2 458.469 131.509 457.811 130.933C457.153 130.357 456.381 129.906 455.485 129.579C454.588 129.253 453.587 129.09 452.481 129.09H443.842V142.203H452.481C453.587 142.203 454.588 142.05 455.485 141.733C456.381 141.416 457.153 140.984 457.811 140.408C458.469 139.832 458.974 139.151 459.327 138.373C459.68 137.595 459.852 136.712 459.852 135.733V135.743Z" fill="white"/>
<path d="M35.3889 22.8278L21.1779 10.2208L35.1862 38.2118H80.9027V61.0396H35.2076L21.1779 89.0728L35.3889 76.4658H92.2012V99.2936H22.0634L0 76.4658L14.4031 49.6467L0 22.8278L22.0634 0H92.2012V22.8278H35.3889Z" fill="white"/>
<path d="M130.481 76.3692V0H108.514V76.3692L130.481 99.1808H204.37V76.3692H130.481Z" fill="white"/>
<path d="M250.289 22.8278L236.078 10.2208L250.086 38.2118H295.803V61.0396H250.108L236.078 89.0728L250.289 76.4658H307.101V99.2936H236.964L214.9 76.4658L229.303 49.6467L214.9 22.8278L236.964 0H307.101V22.8278H250.289Z" fill="white"/>
<path d="M425.544 0L410.489 79.4327L389.413 99.2935H355.289L334.212 79.4327L319.158 0H341.238L355.289 76.4536H389.413L403.464 0H425.544Z" fill="white"/>
<path d="M517.043 0L539.022 22.8291L523.605 49.6465L539.022 76.4639L517.043 99.2939H461.707L439.728 76.4639L455.145 49.6465L439.728 22.8291L461.707 0H517.043ZM479.892 57.0938L459.514 90.5889L477.098 76.4727H501.634L519.219 90.5889L498.841 57.0938H479.892ZM501.634 22.8213H477.098L459.514 8.70508L479.892 42.2002H498.841L519.219 8.70508L501.634 22.8213Z" fill="#0071DA"/>
</svg>
