<svg width="150" height="68" viewBox="0 0 150 68" fill="none" xmlns="http://www.w3.org/2000/svg">
<path d="M16.6841 48.4371C15.7364 48.1459 13.8429 47.6355 11.0253 46.9316C8.20781 46.203 5.97372 45.5712 4.34676 45.0371C4.00714 44.9157 3.81267 44.6728 3.81267 44.2839C3.83638 43.8959 4.12857 43.6767 4.71105 43.6767H14.7166C15.1292 43.6767 15.4935 43.8228 15.8341 44.0894C16.1737 44.3569 16.4166 44.6966 16.5864 45.0855L16.9023 45.8387L20.0841 44.6482L19.7929 43.8959C19.3792 42.8514 18.7 42.0014 17.777 41.3459C16.8292 40.6657 15.8094 40.3498 14.7166 40.3498H4.73571C3.52143 40.3498 2.52533 40.6894 1.7721 41.3696C1.01981 42.0498 0.557813 42.8514 0.436384 43.7745C0.291239 44.7943 0.509431 45.741 1.06819 46.591C1.62695 47.441 2.42857 47.9998 3.44838 48.2673C4.41981 48.5339 5.82857 48.9228 7.67372 49.4323C9.49514 49.9426 11.1468 50.38 12.5555 50.7926C13.9643 51.1816 15.0078 51.4966 15.7364 51.7157C16.1007 51.8371 16.2951 52.08 16.2951 52.4443C16.2468 52.8323 15.9309 53.003 15.3721 53.003H5.34286C4.92924 53.003 4.56496 52.8816 4.22533 52.5894C3.88571 52.3228 3.64286 51.9823 3.4721 51.5943L3.18086 50.8894L0 52.0316L0.291239 52.8086C0.703906 53.853 1.35943 54.703 2.28248 55.3586C3.20552 56.0141 4.22533 56.33 5.34286 56.33H15.3484C16.5864 56.33 17.6071 55.9894 18.3357 55.3339C19.0643 54.6784 19.5253 53.8767 19.6714 52.9537C19.8166 51.9339 19.6221 51.0108 19.0396 50.1608C18.4809 49.3108 17.6792 48.753 16.6841 48.4371Z" fill="#090714"/>
<path d="M37.2787 40.4712L31.304 49.2625L25.8397 40.4712H21.4199L27.2969 49.9427H30.843L26.4953 56.33H30.9151L41.6985 40.4712H37.2787Z" fill="#090714"/>
<path d="M59.7183 40.3498V52.8569L59.6216 52.8086C59.4271 52.7108 59.281 52.5657 59.1359 52.3959L50.5865 42.1466C49.6151 40.9816 48.304 40.3745 46.7255 40.3745H43.9326V56.33H47.3573V43.8712L47.4294 43.8959C47.6239 43.968 47.7937 44.0894 47.9398 44.2839L56.5128 54.5323C57.4842 55.6982 58.7716 56.3053 60.3501 56.3053H63.143V40.3251H59.7183V40.3498Z" fill="#090714"/>
<path d="M103.748 51.618C103.602 52.0316 103.336 52.3466 102.971 52.6141C102.607 52.8816 102.218 53.003 101.781 53.003H93.1111C92.5523 53.003 92.0429 52.8323 91.6293 52.5173C91.1929 52.2014 90.9737 51.7394 90.9737 51.1816V49.918H98.7698L100.882 46.7608H90.9737V45.5712C90.9737 44.9888 91.1929 44.5268 91.6293 44.1871C92.0666 43.8466 92.5523 43.7014 93.1111 43.7014H101.806C102.218 43.7014 102.631 43.8228 102.995 44.0894C103.359 44.3569 103.627 44.6966 103.748 45.1102L103.991 45.8388L107.148 44.6482L106.857 43.8959C106.444 42.8514 105.788 42.0014 104.841 41.3212C103.918 40.6657 102.874 40.3251 101.781 40.3251H93.1111C91.5809 40.3251 90.2452 40.8355 89.177 41.8553C88.1078 42.8751 87.5737 44.1141 87.5737 45.5712V51.1816C87.5737 52.6625 88.1078 53.9014 89.1523 54.8728C90.1968 55.8443 91.5325 56.33 93.0864 56.33H101.781C102.898 56.33 103.943 56.0141 104.865 55.3586C105.788 54.7268 106.468 53.853 106.857 52.8086L107.148 52.0316L103.967 50.8894L103.748 51.618Z" fill="#090714"/>
<path d="M126.018 51.6427C125.872 52.0316 125.605 52.3466 125.265 52.5894C124.901 52.8323 124.513 52.9537 124.1 52.9537H115.357C114.822 52.9537 114.336 52.8086 113.9 52.4927C113.463 52.2014 113.268 51.7394 113.268 51.1816V45.5228C113.268 44.9641 113.486 44.503 113.9 44.1871C114.313 43.8712 114.798 43.7014 115.357 43.7014H124.1C124.513 43.7014 124.901 43.8228 125.265 44.0657C125.629 44.3086 125.872 44.6482 126.018 45.0371L126.309 45.7894L129.467 44.6245L129.175 43.8466C128.786 42.803 128.131 41.9284 127.208 41.2966C126.286 40.6657 125.241 40.3251 124.1 40.3251H115.357C113.827 40.3251 112.515 40.8108 111.471 41.8069C110.427 42.7784 109.917 44.041 109.917 45.4982V51.1569C109.917 52.6388 110.427 53.8768 111.471 54.8482C112.491 55.8196 113.802 56.3053 115.357 56.3053H124.1C125.241 56.3053 126.286 55.9894 127.208 55.3339C128.131 54.703 128.786 53.8284 129.175 52.7839L129.467 52.0069L126.309 50.8657L126.018 51.6427Z" fill="#090714"/>
<path d="M149.794 40.3498V56.33H146.443V50.0641H137.675L135.636 46.7608V56.33H132.236V40.3498H135.636V46.6641H146.443V40.3498H149.794Z" fill="#090714"/>
<path d="M85.4609 40.3498V43.7498H77.3736V56.33H73.9736V43.7498H65.8862V40.3498H85.4609Z" fill="#090714"/>
<path d="M1.30545 65.6534C1.36617 66.4361 2.00462 66.9521 2.94 66.9521C3.76154 66.9521 4.34781 66.5945 4.34781 65.9617C4.34781 65.237 3.59552 65.088 2.66868 64.9381C1.68112 64.7797 0.667006 64.4714 0.667006 63.3396C0.667006 62.3492 1.51511 61.6833 2.75596 61.6833C4.12013 61.6833 4.95875 62.4071 5.02895 63.4563H4.24251C4.15523 62.7818 3.58698 62.3407 2.75596 62.3407C1.96098 62.3407 1.42783 62.6737 1.42783 63.2979C1.42783 63.9971 2.17063 64.1384 3.08799 64.2883C4.08503 64.4467 5.10769 64.7626 5.10769 65.8953C5.10769 66.9028 4.21595 67.6096 2.93146 67.6096C1.43637 67.6096 0.561705 66.8022 0.518066 65.6534H1.30545Z" fill="black"/>
<path d="M16.8057 66.9436C18.0826 66.9436 18.9478 65.9864 18.9478 64.6459C18.9478 63.3064 18.0826 62.3492 16.8057 62.3492C15.5298 62.3492 14.6646 63.3064 14.6646 64.6459C14.6646 65.9864 15.5298 66.9436 16.8057 66.9436ZM16.8057 67.6096C15.0839 67.6096 13.8867 66.3611 13.8867 64.6459C13.8867 62.9317 15.0839 61.6833 16.8057 61.6833C18.5285 61.6833 19.7257 62.9317 19.7257 64.6459C19.7257 66.3611 18.5285 67.6096 16.8057 67.6096Z" fill="black"/>
<path d="M28.731 67.5602V61.7326H29.4918V66.8943H32.2799V67.5602H28.731Z" fill="black"/>
<path d="M40.6216 61.7326H41.3824V65.1127C41.3824 66.3194 41.889 66.9436 42.9467 66.9436C44.0225 66.9436 44.5291 66.3194 44.5291 65.1127V61.7326H45.2899V65.0709C45.2899 66.7358 44.4769 67.6096 42.9467 67.6096C41.4166 67.6096 40.6216 66.7358 40.6216 65.0709V61.7326Z" fill="black"/>
<path d="M54.0679 61.7326H58.7969V62.3986H56.8133V67.5602H56.0525V62.3986H54.0679V61.7326Z" fill="black"/>
<path d="M67.6113 61.7326H68.3712V67.5602H67.6113V61.7326Z" fill="black"/>
<path d="M80.2955 66.9436C81.5724 66.9436 82.4376 65.9864 82.4376 64.6459C82.4376 63.3064 81.5724 62.3492 80.2955 62.3492C79.0195 62.3492 78.1544 63.3064 78.1544 64.6459C78.1544 65.9864 79.0195 66.9436 80.2955 66.9436ZM80.2955 67.6096C78.5737 67.6096 77.3765 66.3611 77.3765 64.6459C77.3765 62.9317 78.5737 61.6833 80.2955 61.6833C82.0183 61.6833 83.2155 62.9317 83.2155 64.6459C83.2155 66.3611 82.0183 67.6096 80.2955 67.6096Z" fill="black"/>
<path d="M92.2222 67.5602V61.7326H92.9213L96.2075 66.2274V61.7326H96.9512V67.5602H96.2521L92.965 63.0645V67.5602H92.2222Z" fill="black"/>
<path d="M106.726 65.6534C106.787 66.4361 107.426 66.9521 108.361 66.9521C109.182 66.9521 109.768 66.5945 109.768 65.9617C109.768 65.237 109.016 65.088 108.09 64.9381C107.102 64.7797 106.088 64.4714 106.088 63.3396C106.088 62.3492 106.936 61.6833 108.177 61.6833C109.541 61.6833 110.381 62.4071 110.45 63.4563H109.663C109.576 62.7818 109.008 62.3407 108.177 62.3407C107.382 62.3407 106.849 62.6737 106.849 63.2979C106.849 63.9971 107.592 64.1384 108.51 64.2883C109.506 64.4467 110.529 64.7626 110.529 65.8953C110.529 66.9028 109.637 67.6096 108.352 67.6096C106.857 67.6096 105.983 66.8022 105.939 65.6534H106.726Z" fill="black"/>
<path d="M131.031 65.329H133.242L132.132 62.5238L131.031 65.329ZM129.37 67.5602L131.703 61.7326H132.605L134.93 67.5602H134.117L133.47 65.9864H130.803L130.156 67.5602H129.37Z" fill="black"/>
<path d="M143.175 64.6459C143.175 62.8814 144.321 61.6833 146.095 61.6833C147.449 61.6833 148.472 62.4318 148.683 63.6309H147.87C147.66 62.8236 147.004 62.3492 146.077 62.3492C144.792 62.3492 143.953 63.2979 143.953 64.6459C143.953 65.9949 144.792 66.9436 146.06 66.9436C147.188 66.9436 148.001 66.3033 148.001 65.2711V65.0709H146.165V64.405H148.743V67.5602H148.088L148.036 66.7102C147.756 67.1352 147.1 67.6096 146.051 67.6096C144.355 67.6096 143.175 66.4114 143.175 64.6459Z" fill="black"/>
<path d="M74.8951 14.7445C73.7302 12.6318 71.9808 10.8834 69.8682 9.71754C71.9808 8.55163 73.7302 6.80325 74.8951 4.69058C76.061 6.80325 77.8094 8.55163 79.923 9.71754C77.8094 10.8834 76.061 12.6318 74.8951 14.7445Z" fill="#0000FF"/>
<path d="M63.2872 9.71754L69.2372 3.76754C70.0379 2.99058 70.0379 1.67859 69.2372 0.901633L68.9213 0.585729C68.1444 -0.191224 66.8807 -0.191224 66.1038 0.562013C66.0801 0.585729 58.5515 8.1143 58.5515 8.1143C57.6768 8.98897 57.6768 10.3977 58.5515 11.2714C58.5515 11.2714 66.0801 18.8 66.1038 18.8247C66.8807 19.6016 68.1444 19.5779 68.9213 18.8L69.2372 18.4851C70.0142 17.7072 70.0142 16.4208 69.2126 15.6429L63.2872 9.71754ZM91.2395 8.13897L83.6872 0.585729C82.9093 -0.191224 81.6467 -0.166559 80.8697 0.610394L80.5538 0.926298C79.7768 1.70325 79.7768 2.99058 80.5785 3.76754L86.5285 9.71754L80.5785 15.6675C79.7768 16.4445 79.7768 17.7318 80.5538 18.5088L80.8944 18.8493C81.6713 19.6263 82.934 19.6263 83.7109 18.8731L91.2642 11.3208C92.1142 10.4214 92.1142 9.01363 91.2395 8.13897Z" fill="#0000FF"/>
</svg>
